<svg xmlns="http://www.w3.org/2000/svg" viewBox="0 0 520 600" role="img" aria-label="distributional hex sticker" width="520" height="600"><metadata><rdf:RDF xmlns:rdf="http://www.w3.org/1999/02/22-rdf-syntax-ns#" xmlns:dc="http://purl.org/dc/elements/1.1/"><rdf:Description><dc:creator>RealFaviconGenerator</dc:creator><dc:source>https://realfavicongenerator.net</dc:source></rdf:Description></rdf:RDF></metadata><defs><clipPath id="clip-rising"><polygon points="260,8 512.9,154 512.9,446 260,592 7.1,446 7.1,154"></polygon></clipPath></defs><polygon points="260,8 512.9,154 512.9,446 260,592 7.1,446 7.1,154" fill="#1c2a3d"></polygon><g clip-path="url(#clip-rising)"><circle cx="410.1" cy="151.7" r="214" fill="#213249"></circle><circle cx="410.1" cy="151.7" r="164" fill="#1c2a3d"></circle><circle cx="410.1" cy="151.7" r="114" fill="#213249"></circle><circle cx="410.1" cy="151.7" r="64" fill="#1c2a3d"></circle><g transform="translate(122 318) rotate(-30)"><path d="M0,-175 L0.7,-175 L0.8,-172.8 L0.9,-170.6 L1,-168.4 L1.1,-166.2 L1.2,-164.1 L1.4,-161.9 L1.6,-159.7 L1.8,-157.5 L2,-155.3 L2.2,-153.1 L2.5,-150.9 L2.8,-148.8 L3.1,-146.6 L3.4,-144.4 L3.8,-142.2 L4.2,-140 L4.7,-137.8 L5.2,-135.6 L5.7,-133.4 L6.3,-131.3 L6.9,-129.1 L7.6,-126.9 L8.3,-124.7 L9.1,-122.5 L10,-120.3 L10.9,-118.1 L11.8,-115.9 L12.9,-113.8 L14,-111.6 L15.2,-109.4 L16.4,-107.2 L17.7,-105 L19.1,-102.8 L20.6,-100.6 L22.2,-98.4 L23.8,-96.3 L25.5,-94.1 L27.3,-91.9 L29.2,-89.7 L31.1,-87.5 L33.2,-85.3 L35.3,-83.1 L37.5,-80.9 L39.7,-78.7 L42,-76.6 L44.4,-74.4 L46.9,-72.2 L49.4,-70 L51.9,-67.8 L54.5,-65.6 L57.2,-63.4 L59.8,-61.3 L62.5,-59.1 L65.2,-56.9 L67.9,-54.7 L70.6,-52.5 L73.4,-50.3 L76,-48.1 L78.7,-45.9 L81.3,-43.8 L83.9,-41.6 L86.4,-39.4 L88.9,-37.2 L91.3,-35 L93.6,-32.8 L95.7,-30.6 L97.8,-28.4 L99.8,-26.2 L101.7,-24.1 L103.4,-21.9 L105,-19.7 L106.4,-17.5 L107.7,-15.3 L108.8,-13.1 L109.8,-10.9 L110.6,-8.8 L111.2,-6.6 L111.6,-4.4 L111.9,-2.2 L112,0 L111.9,2.2 L111.6,4.4 L111.2,6.6 L110.6,8.8 L109.8,10.9 L108.8,13.1 L107.7,15.3 L106.4,17.5 L105,19.7 L103.4,21.9 L101.7,24.1 L99.8,26.3 L97.8,28.4 L95.7,30.6 L93.6,32.8 L91.3,35 L88.9,37.2 L86.4,39.4 L83.9,41.6 L81.3,43.7 L78.7,45.9 L76,48.1 L73.4,50.3 L70.6,52.5 L67.9,54.7 L65.2,56.9 L62.5,59.1 L59.8,61.3 L57.2,63.4 L54.5,65.6 L51.9,67.8 L49.4,70 L46.9,72.2 L44.4,74.4 L42,76.6 L39.7,78.8 L37.5,80.9 L35.3,83.1 L33.2,85.3 L31.1,87.5 L29.2,89.7 L27.3,91.9 L25.5,94.1 L23.8,96.2 L22.2,98.4 L20.6,100.6 L19.1,102.8 L17.7,105 L16.4,107.2 L15.2,109.4 L14,111.6 L12.9,113.8 L11.8,115.9 L10.9,118.1 L10,120.3 L9.1,122.5 L8.3,124.7 L7.6,126.9 L6.9,129.1 L6.3,131.2 L5.7,133.4 L5.2,135.6 L4.7,137.8 L4.2,140 L3.8,142.2 L3.4,144.4 L3.1,146.6 L2.8,148.7 L2.5,150.9 L2.2,153.1 L2,155.3 L1.8,157.5 L1.6,159.7 L1.4,161.9 L1.2,164.1 L1.1,166.2 L1,168.4 L0.9,170.6 L0.8,172.8 L0.7,175 L0,175 Z" fill="#2c405b"></path><path d="M0,-175 L0.7,-175 L0.7,-173.3 L0.8,-171.6 L0.9,-169.9 L1,-168.2 L1.1,-166.5 L1.2,-164.8 L1.3,-163.1 L1.4,-161.4 L1.6,-159.7 L1.7,-158 L1.9,-156.4 L2.1,-154.7 L2.2,-153 L2.4,-151.3 L2.7,-149.6 L2.9,-147.9 L3.1,-146.2 L3.4,-144.5 L3.7,-142.8 L4,-141.1 L4.3,-139.4 L4.7,-137.7 L5.1,-136 L5.5,-134.3 L5.9,-132.6 L6.4,-130.9 L6.9,-129.2 L7.4,-127.5 L7.9,-125.8 L8.5,-124.1 L9.1,-122.4 L9.8,-120.7 L10.5,-119.1 L11.2,-117.4 L12,-115.7 L12.8,-114 L13.6,-112.3 L14.5,-110.6 L15.4,-108.9 L16.4,-107.2 L0,-107.2 Z" fill="#e05a4f"></path><path d="M0,107.2 L16.4,107.2 L15.4,108.9 L14.5,110.6 L13.6,112.3 L12.8,114 L12,115.7 L11.2,117.4 L10.5,119.1 L9.8,120.7 L9.1,122.4 L8.5,124.1 L7.9,125.8 L7.4,127.5 L6.9,129.2 L6.4,130.9 L5.9,132.6 L5.5,134.3 L5.1,136 L4.7,137.7 L4.3,139.4 L4,141.1 L3.7,142.8 L3.4,144.5 L3.1,146.2 L2.9,147.9 L2.7,149.6 L2.4,151.3 L2.2,153 L2.1,154.7 L1.9,156.4 L1.7,158 L1.6,159.7 L1.4,161.4 L1.3,163.1 L1.2,164.8 L1.1,166.5 L1,168.2 L0.9,169.9 L0.8,171.6 L0.7,173.3 L0.7,175 L0,175 Z" fill="#e05a4f"></path><path d="M-3,-164.1 L-10,-164.1" stroke="#f2ead9" stroke-width="2.2" stroke-linecap="round" opacity=".7"></path><path d="M-3,-109.4 L-10,-109.4" stroke="#f2ead9" stroke-width="2.2" stroke-linecap="round" opacity=".7"></path><path d="M-3,-54.7 L-10,-54.7" stroke="#f2ead9" stroke-width="2.2" stroke-linecap="round" opacity=".7"></path><path d="M-3,0 L-10,0" stroke="#f2ead9" stroke-width="2.2" stroke-linecap="round" opacity=".7"></path><path d="M-3,54.7 L-10,54.7" stroke="#f2ead9" stroke-width="2.2" stroke-linecap="round" opacity=".7"></path><path d="M-3,109.4 L-10,109.4" stroke="#f2ead9" stroke-width="2.2" stroke-linecap="round" opacity=".7"></path><path d="M-3,164.1 L-10,164.1" stroke="#f2ead9" stroke-width="2.2" stroke-linecap="round" opacity=".7"></path><path d="M0,-175 L0,175" stroke="#f2ead9" stroke-width="2.6" stroke-linecap="round"></path><path d="M0,-24 L0,24" stroke="#f2ead9" stroke-width="5" stroke-linecap="round"></path><path d="M-1.8,-174.9 L-1.7,-172.7 L-1.6,-170.5 L-1.5,-168.3 L-1.4,-166.1 L-1.3,-163.9 L-1.2,-161.7 L-1,-159.5 L-0.8,-157.3 L-0.7,-155 L-0.4,-152.8 L-0.2,-150.6 L0,-148.4 L0.3,-146.1 L0.6,-143.9 L1,-141.7 L1.4,-139.4 L1.8,-137.2 L2.2,-134.9 L2.7,-132.7 L3.3,-130.4 L3.8,-128.1 L4.5,-125.9 L5.2,-123.6 L5.9,-121.3 L6.7,-119 L7.6,-116.7 L8.5,-114.4 L9.5,-112.1 L10.6,-109.8 L11.7,-107.5 L13,-105.2 L14.2,-102.8 L15.6,-100.5 L17.1,-98.2 L18.6,-95.8 L20.2,-93.5 L21.9,-91.2 L23.7,-88.8 L25.5,-86.5 L27.4,-84.1 L29.4,-81.8 L31.5,-79.4 L33.7,-77.1 L35.9,-74.8 L38.2,-72.4 L40.5,-70.1 L42.9,-67.8 L45.4,-65.4 L47.9,-63.1 L50.5,-60.8 L53,-58.5 L55.6,-56.1 L58.3,-53.8 L60.9,-51.5 L63.5,-49.2 L66.2,-46.9 L68.8,-44.7 L71.4,-42.4 L73.9,-40.1 L76.4,-37.9 L78.8,-35.7 L81.2,-33.5 L83.5,-31.3 L85.7,-29.1 L87.8,-26.9 L89.8,-24.8 L91.7,-22.7 L93.4,-20.7 L95,-18.6 L96.5,-16.7 L97.8,-14.7 L99,-12.9 L100,-11.1 L100.8,-9.3 L101.5,-7.6 L102.1,-6 L102.5,-4.4 L102.8,-2.9 L102.9,-1.5 L103,0 L102.9,1.5 L102.8,2.9 L102.5,4.4 L102.1,6 L101.5,7.6 L100.8,9.3 L100,11.1 L99,12.9 L97.8,14.7 L96.5,16.7 L95,18.6 L93.4,20.7 L91.7,22.7 L89.8,24.8 L87.8,26.9 L85.7,29.1 L83.5,31.3 L81.2,33.5 L78.8,35.7 L76.4,37.9 L73.9,40.1 L71.4,42.4 L68.8,44.7 L66.2,46.9 L63.5,49.2 L60.9,51.5 L58.3,53.8 L55.6,56.1 L53,58.5 L50.5,60.8 L47.9,63.1 L45.4,65.4 L42.9,67.8 L40.5,70.1 L38.2,72.4 L35.9,74.8 L33.7,77.1 L31.5,79.4 L29.4,81.8 L27.4,84.1 L25.5,86.5 L23.7,88.8 L21.9,91.2 L20.2,93.5 L18.6,95.8 L17.1,98.2 L15.6,100.5 L14.2,102.8 L13,105.2 L11.7,107.5 L10.6,109.8 L9.5,112.1 L8.5,114.4 L7.6,116.7 L6.7,119 L5.9,121.3 L5.2,123.6 L4.5,125.9 L3.8,128.1 L3.3,130.4 L2.7,132.7 L2.2,134.9 L1.8,137.2 L1.4,139.4 L1,141.7 L0.6,143.9 L0.3,146.1 L0,148.4 L-0.2,150.6 L-0.4,152.8 L-0.7,155 L-0.8,157.3 L-1,159.5 L-1.2,161.7 L-1.3,163.9 L-1.4,166.1 L-1.5,168.3 L-1.6,170.5 L-1.7,172.7 L-1.8,174.9 L3.1,175.1 L3.2,172.9 L3.3,170.7 L3.5,168.6 L3.6,166.4 L3.8,164.2 L4,162.1 L4.2,159.9 L4.4,157.7 L4.6,155.6 L4.9,153.4 L5.2,151.3 L5.5,149.1 L5.9,147 L6.2,144.8 L6.7,142.7 L7.1,140.6 L7.6,138.4 L8.1,136.3 L8.7,134.2 L9.3,132.1 L10,130 L10.7,127.9 L11.5,125.8 L12.3,123.7 L13.2,121.6 L14.1,119.5 L15.2,117.5 L16.2,115.4 L17.4,113.3 L18.6,111.3 L19.9,109.2 L21.2,107.2 L22.6,105.1 L24.2,103.1 L25.7,101 L27.4,99 L29.1,97 L31,94.9 L32.9,92.9 L34.8,90.9 L36.9,88.8 L39,86.8 L41.2,84.8 L43.5,82.7 L45.9,80.7 L48.3,78.7 L50.8,76.6 L53.3,74.6 L55.9,72.5 L58.6,70.5 L61.3,68.4 L64,66.4 L66.8,64.3 L69.5,62.2 L72.3,60.1 L75.1,58.1 L77.9,56 L80.7,53.9 L83.5,51.7 L86.2,49.6 L89,47.5 L91.6,45.3 L94.2,43.1 L96.8,40.9 L99.3,38.7 L101.7,36.4 L104,34.2 L106.2,31.8 L108.3,29.5 L110.3,27.1 L112.1,24.6 L113.8,22.1 L115.4,19.6 L116.8,16.9 L118,14.3 L119.1,11.5 L119.9,8.7 L120.5,5.8 L120.9,2.9 L121,0 L120.9,-2.9 L120.5,-5.8 L119.9,-8.7 L119.1,-11.5 L118,-14.3 L116.8,-16.9 L115.4,-19.6 L113.8,-22.1 L112.1,-24.6 L110.3,-27.1 L108.3,-29.5 L106.2,-31.8 L104,-34.2 L101.7,-36.4 L99.3,-38.7 L96.8,-40.9 L94.2,-43.1 L91.6,-45.3 L89,-47.5 L86.2,-49.6 L83.5,-51.7 L80.7,-53.9 L77.9,-56 L75.1,-58.1 L72.3,-60.1 L69.5,-62.2 L66.8,-64.3 L64,-66.4 L61.3,-68.4 L58.6,-70.5 L55.9,-72.5 L53.3,-74.6 L50.8,-76.6 L48.3,-78.7 L45.9,-80.7 L43.5,-82.7 L41.2,-84.8 L39,-86.8 L36.9,-88.8 L34.8,-90.9 L32.9,-92.9 L31,-94.9 L29.1,-97 L27.4,-99 L25.7,-101 L24.2,-103.1 L22.6,-105.1 L21.2,-107.2 L19.9,-109.2 L18.6,-111.3 L17.4,-113.3 L16.2,-115.4 L15.2,-117.5 L14.1,-119.5 L13.2,-121.6 L12.3,-123.7 L11.5,-125.8 L10.7,-127.9 L10,-130 L9.3,-132.1 L8.7,-134.2 L8.1,-136.3 L7.6,-138.4 L7.1,-140.6 L6.7,-142.7 L6.2,-144.8 L5.9,-147 L5.5,-149.1 L5.2,-151.3 L4.9,-153.4 L4.6,-155.6 L4.4,-157.7 L4.2,-159.9 L4,-162.1 L3.8,-164.2 L3.6,-166.4 L3.5,-168.6 L3.3,-170.7 L3.2,-172.9 L3.1,-175.1 Z" fill="#e7ae47" stroke="#e7ae47" stroke-width="1.5" stroke-linejoin="round"></path><circle cx="0.7" cy="-175" r="3" fill="#e7ae47"></circle><circle cx="0.7" cy="175" r="3" fill="#e7ae47"></circle><path d="M9,-127.3 L9.7,-125.2 L10.5,-123 L11.4,-120.9 L12.3,-118.7 L13.3,-116.6 L14.4,-114.5 L15.5,-112.3 L16.7,-110.2 L17.9,-108.1 L19.3,-106 L20.7,-103.8 L22.2,-101.7 L23.7,-99.6 L25.4,-97.5 L27.1,-95.3 L28.9,-93.2 L30.8,-91.1 L32.8,-89 L34.8,-86.9 L36.9,-84.7 L39.1,-82.6 L41.4,-80.5 L43.7,-78.4 L46.1,-76.3 L48.6,-74.1 L51.1,-72 L53.7,-69.9 L56.3,-67.8 L59,-65.6 L61.7,-63.5 L64.4,-61.4 L67.1,-59.2 L69.9,-57.1 L72.6,-54.9 L75.4,-52.8 L78.1,-50.6 L80.8,-48.5 L83.5,-46.3 L86.1,-44.2 L88.7,-42 L91.2,-39.8 L93.7,-37.6 L96.1,-35.4 L98.4,-33.2 L100.5,-31 L102.6,-28.7 L104.6,-26.4 L106.4,-24.2 L108.1,-21.9 L109.7,-19.5 L111.1,-17.2 L112.3,-14.8 L113.4,-12.4 L114.3,-10 L115,-7.5 L115.5,-5 L115.9,-2.5 L116,0 L115.9,2.5 L115.5,5 L115,7.5 L114.3,10 L113.4,12.4 L112.3,14.8 L111.1,17.2 L109.7,19.5 L108.1,21.9 L106.4,24.2 L104.6,26.4 L102.6,28.7 L100.5,31 L98.4,33.2 L96.1,35.4 L93.7,37.6 L91.2,39.8 L88.7,42 L86.1,44.2 L83.5,46.3 L80.8,48.5 L78.1,50.6 L75.4,52.8 L72.6,54.9 L69.9,57.1 L67.1,59.2 L64.4,61.4 L61.7,63.5 L59,65.6 L56.3,67.8 L53.7,69.9 L51.1,72 L48.6,74.1 L46.1,76.3 L43.7,78.4 L41.4,80.5 L39.1,82.6 L36.9,84.7 L34.8,86.9 L32.8,89 L30.8,91.1 L28.9,93.2 L27.1,95.3 L25.4,97.5 L23.7,99.6 L22.2,101.7 L20.7,103.8 L19.3,106 L17.9,108.1 L16.7,110.2 L15.5,112.3 L14.4,114.5 L13.3,116.6 L12.3,118.7 L11.4,120.9 L10.5,123 L9.7,125.2 L9,127.3" fill="none" stroke="#f8d995" stroke-width="2.4" stroke-linecap="round"></path><clipPath id="rising-grip1"><path d="M94,-15.1 L95.3,-13 L96.4,-11.3 L97.3,-9.6 L98.1,-8 L98.7,-6.5 L99.2,-5.1 L99.6,-3.7 L99.8,-2.4 L100,-1.2 L100,0 L100,1.2 L99.8,2.4 L99.6,3.7 L99.2,5.1 L98.7,6.5 L98.1,8 L97.3,9.6 L96.4,11.3 L95.3,13 L94,15.1 L112.8,28.7 L114.6,26.3 L116.4,23.7 L118,21 L119.5,18.2 L120.8,15.4 L121.9,12.4 L122.8,9.4 L123.5,6.3 L123.9,3.2 L124,0 L123.9,-3.2 L123.5,-6.3 L122.8,-9.4 L121.9,-12.4 L120.8,-15.4 L119.5,-18.2 L118,-21 L116.4,-23.7 L114.6,-26.3 L112.8,-28.7 Z"></path></clipPath><path d="M94,-15.1 L95.3,-13 L96.4,-11.3 L97.3,-9.6 L98.1,-8 L98.7,-6.5 L99.2,-5.1 L99.6,-3.7 L99.8,-2.4 L100,-1.2 L100,0 L100,1.2 L99.8,2.4 L99.6,3.7 L99.2,5.1 L98.7,6.5 L98.1,8 L97.3,9.6 L96.4,11.3 L95.3,13 L94,15.1 L112.8,28.7 L114.6,26.3 L116.4,23.7 L118,21 L119.5,18.2 L120.8,15.4 L121.9,12.4 L122.8,9.4 L123.5,6.3 L123.9,3.2 L124,0 L123.9,-3.2 L123.5,-6.3 L122.8,-9.4 L121.9,-12.4 L120.8,-15.4 L119.5,-18.2 L118,-21 L116.4,-23.7 L114.6,-26.3 L112.8,-28.7 Z" fill="#47301f" stroke="#47301f" stroke-width="2" stroke-linejoin="round"></path><g clip-path="url(#rising-grip1)"><path d="M130,0.7 L94,-0.7" stroke="#8a5a3b" stroke-width="3"></path><path d="M127.5,15 L93.6,2.7" stroke="#8a5a3b" stroke-width="3"></path><path d="M122.2,26.1 L91.2,7.9" stroke="#8a5a3b" stroke-width="3"></path><path d="M127.5,-15 L93.6,-2.7" stroke="#8a5a3b" stroke-width="3"></path><path d="M122.2,-26.1 L91.2,-7.9" stroke="#8a5a3b" stroke-width="3"></path></g></g><g transform="translate(192.2 203.6) rotate(-30)"><path d="M2,0 L164,0" stroke="#dcc6a2" stroke-width="5.94" stroke-linecap="round"></path><clipPath id="rising-v2"><path d="M93.2,0 L93.2,-0 L86.2,-0 L86.2,-1.9 L72.2,-1.9 L72.2,-6.5 L58.1,-6.5 L58.1,-12.3 L44.1,-12.3 L44.1,-17.1 L30.1,-17.1 L30.1,-20.1 L16,-20.1 L16,-21.6 L9,-21.6 L9,-21.6 L9,0 Z"></path></clipPath><path d="M93.2,0 L93.2,-0 L86.2,-0 L86.2,-1.9 L72.2,-1.9 L72.2,-6.5 L58.1,-6.5 L58.1,-12.3 L44.1,-12.3 L44.1,-17.1 L30.1,-17.1 L30.1,-20.1 L16,-20.1 L16,-21.6 L9,-21.6 L9,-21.6 L9,0 Z" fill="#e05a4f" stroke="#e05a4f" stroke-width="3" stroke-linejoin="round"></path><g clip-path="url(#rising-v2)"><path d="M23,0 L11.1,-23.8" stroke="#1c2a3d" stroke-width="1.3" opacity=".35"></path><path d="M34,0 L22.1,-23.8" stroke="#1c2a3d" stroke-width="1.3" opacity=".35"></path><path d="M45,0 L33.1,-23.8" stroke="#1c2a3d" stroke-width="1.3" opacity=".35"></path><path d="M56,0 L44.1,-23.8" stroke="#1c2a3d" stroke-width="1.3" opacity=".35"></path><path d="M67,0 L55.1,-23.8" stroke="#1c2a3d" stroke-width="1.3" opacity=".35"></path><path d="M78,0 L66.1,-23.8" stroke="#1c2a3d" stroke-width="1.3" opacity=".35"></path><path d="M89,0 L77.1,-23.8" stroke="#1c2a3d" stroke-width="1.3" opacity=".35"></path></g><clipPath id="rising-v3"><path d="M93.2,0 L93.2,0 L86.2,0 L86.2,1.9 L72.2,1.9 L72.2,6.5 L58.1,6.5 L58.1,12.3 L44.1,12.3 L44.1,17.1 L30.1,17.1 L30.1,20.1 L16,20.1 L16,21.6 L9,21.6 L9,21.6 L9,0 Z"></path></clipPath><path d="M93.2,0 L93.2,0 L86.2,0 L86.2,1.9 L72.2,1.9 L72.2,6.5 L58.1,6.5 L58.1,12.3 L44.1,12.3 L44.1,17.1 L30.1,17.1 L30.1,20.1 L16,20.1 L16,21.6 L9,21.6 L9,21.6 L9,0 Z" fill="#a14038" stroke="#a14038" stroke-width="3" stroke-linejoin="round"></path><g clip-path="url(#rising-v3)"><path d="M23,0 L11.1,23.8" stroke="#1c2a3d" stroke-width="1.3" opacity=".35"></path><path d="M34,0 L22.1,23.8" stroke="#1c2a3d" stroke-width="1.3" opacity=".35"></path><path d="M45,0 L33.1,23.8" stroke="#1c2a3d" stroke-width="1.3" opacity=".35"></path><path d="M56,0 L44.1,23.8" stroke="#1c2a3d" stroke-width="1.3" opacity=".35"></path><path d="M67,0 L55.1,23.8" stroke="#1c2a3d" stroke-width="1.3" opacity=".35"></path><path d="M78,0 L66.1,23.8" stroke="#1c2a3d" stroke-width="1.3" opacity=".35"></path><path d="M89,0 L77.1,23.8" stroke="#1c2a3d" stroke-width="1.3" opacity=".35"></path></g><path d="M7,0 L95.2,0" stroke="#dcc6a2" stroke-width="2.4" stroke-linecap="round"></path><path d="M-4,-5 L3,-5 L3,5 L-4,5" fill="#e05a4f" stroke="#e05a4f" stroke-width="2" stroke-linejoin="round"></path><path d="M162,-22.7 L162,-22.7 L176.5,-22.7 L176.5,-15.1 L198.3,-15.1 L198.3,-7.6 L207.4,-7.6 L207.4,0 L199.8,0 L199.8,7.6 L185.6,7.6 L185.6,15.1 L173.8,15.1 L173.8,22.7 L162,22.7 L162,22.7 Z" fill="#1c2a3d" stroke="#1c2a3d" stroke-width="7" stroke-linejoin="round"></path><path d="M162,-22.7 L162,-22.7 L176.5,-22.7 L176.5,-15.1 L198.3,-15.1 L198.3,-7.6 L207.4,-7.6 L207.4,0 L199.8,0 L199.8,7.6 L185.6,7.6 L185.6,15.1 L173.8,15.1 L173.8,22.7 L162,22.7 L162,22.7 Z" fill="#a14038" stroke="#a14038" stroke-width="2" stroke-linejoin="round"></path><clipPath id="rising-h4"><path d="M162,-22.7 L162,-22.7 L176.5,-22.7 L176.5,-15.1 L198.3,-15.1 L198.3,-7.6 L207.4,-7.6 L207.4,0 L199.8,0 L199.8,7.6 L185.6,7.6 L185.6,15.1 L173.8,15.1 L173.8,22.7 L162,22.7 L162,22.7 Z"></path></clipPath><g clip-path="url(#rising-h4)"><rect x="160" y="-26.7" width="51.4" height="26.7" fill="#e05a4f"></rect></g><path d="M161,-12.5 L161,12.5" stroke="#dcc6a2" stroke-width="4" stroke-linecap="round"></path></g><g transform="translate(250.2 244) rotate(-30)"><path d="M2,0 L164,0" stroke="#dcc6a2" stroke-width="5.94" stroke-linecap="round"></path><clipPath id="rising-v5"><path d="M93.2,0 L93.2,-0 L92.7,-0 L92.2,-0 L91.7,-0 L91.1,-0 L90.6,-0 L90.1,-0 L89.6,-0 L89,-0 L88.5,-0 L88,-0 L87.4,-0 L86.9,-0.1 L86.4,-0.1 L85.9,-0.1 L85.3,-0.1 L84.8,-0.1 L84.3,-0.1 L83.8,-0.1 L83.2,-0.1 L82.7,-0.2 L82.2,-0.2 L81.7,-0.2 L81.1,-0.2 L80.6,-0.3 L80.1,-0.3 L79.6,-0.3 L79,-0.4 L78.5,-0.4 L78,-0.4 L77.4,-0.5 L76.9,-0.5 L76.4,-0.6 L75.9,-0.6 L75.3,-0.7 L74.8,-0.8 L74.3,-0.8 L73.8,-0.9 L73.2,-1 L72.7,-1.1 L72.2,-1.2 L71.7,-1.3 L71.1,-1.4 L70.6,-1.5 L70.1,-1.6 L69.5,-1.7 L69,-1.9 L68.5,-2 L68,-2.2 L67.4,-2.3 L66.9,-2.5 L66.4,-2.6 L65.9,-2.8 L65.3,-3 L64.8,-3.2 L64.3,-3.4 L63.8,-3.6 L63.2,-3.9 L62.7,-4.1 L62.2,-4.3 L61.7,-4.6 L61.1,-4.8 L60.6,-5.1 L60.1,-5.4 L59.5,-5.6 L59,-5.9 L58.5,-6.2 L58,-6.5 L57.4,-6.8 L56.9,-7.1 L56.4,-7.4 L55.9,-7.8 L55.3,-8.1 L54.8,-8.4 L54.3,-8.7 L53.8,-9.1 L53.2,-9.4 L52.7,-9.8 L52.2,-10.1 L51.6,-10.5 L51.1,-10.8 L50.6,-11.1 L50.1,-11.5 L49.5,-11.8 L49,-12.2 L48.5,-12.5 L48,-12.9 L47.4,-13.2 L46.9,-13.5 L46.4,-13.8 L45.9,-14.2 L45.3,-14.5 L44.8,-14.8 L44.3,-15.1 L43.7,-15.4 L43.2,-15.7 L42.7,-16 L42.2,-16.2 L41.6,-16.5 L41.1,-16.8 L40.6,-17 L40.1,-17.3 L39.5,-17.5 L39,-17.7 L38.5,-18 L38,-18.2 L37.4,-18.4 L36.9,-18.6 L36.4,-18.8 L35.9,-19 L35.3,-19.1 L34.8,-19.3 L34.3,-19.4 L33.7,-19.6 L33.2,-19.7 L32.7,-19.9 L32.2,-20 L31.6,-20.1 L31.1,-20.2 L30.6,-20.3 L30.1,-20.4 L29.5,-20.5 L29,-20.6 L28.5,-20.7 L28,-20.8 L27.4,-20.8 L26.9,-20.9 L26.4,-21 L25.8,-21 L25.3,-21.1 L24.8,-21.1 L24.3,-21.2 L23.7,-21.2 L23.2,-21.2 L22.7,-21.3 L22.2,-21.3 L21.6,-21.3 L21.1,-21.4 L20.6,-21.4 L20.1,-21.4 L19.5,-21.4 L19,-21.5 L18.5,-21.5 L18,-21.5 L17.4,-21.5 L16.9,-21.5 L16.4,-21.5 L15.8,-21.5 L15.3,-21.5 L14.8,-21.6 L14.3,-21.6 L13.7,-21.6 L13.2,-21.6 L12.7,-21.6 L12.2,-21.6 L11.6,-21.6 L11.1,-21.6 L10.6,-21.6 L10.1,-21.6 L9.5,-21.6 L9,-21.6 L9,-21.6 L9,0 Z"></path></clipPath><path d="M93.2,0 L93.2,-0 L92.7,-0 L92.2,-0 L91.7,-0 L91.1,-0 L90.6,-0 L90.1,-0 L89.6,-0 L89,-0 L88.5,-0 L88,-0 L87.4,-0 L86.9,-0.1 L86.4,-0.1 L85.9,-0.1 L85.3,-0.1 L84.8,-0.1 L84.3,-0.1 L83.8,-0.1 L83.2,-0.1 L82.7,-0.2 L82.2,-0.2 L81.7,-0.2 L81.1,-0.2 L80.6,-0.3 L80.1,-0.3 L79.6,-0.3 L79,-0.4 L78.5,-0.4 L78,-0.4 L77.4,-0.5 L76.9,-0.5 L76.4,-0.6 L75.9,-0.6 L75.3,-0.7 L74.8,-0.8 L74.3,-0.8 L73.8,-0.9 L73.2,-1 L72.7,-1.1 L72.2,-1.2 L71.7,-1.3 L71.1,-1.4 L70.6,-1.5 L70.1,-1.6 L69.5,-1.7 L69,-1.9 L68.5,-2 L68,-2.2 L67.4,-2.3 L66.9,-2.5 L66.4,-2.6 L65.9,-2.8 L65.3,-3 L64.8,-3.2 L64.3,-3.4 L63.8,-3.6 L63.2,-3.9 L62.7,-4.1 L62.2,-4.3 L61.7,-4.6 L61.1,-4.8 L60.6,-5.1 L60.1,-5.4 L59.5,-5.6 L59,-5.9 L58.5,-6.2 L58,-6.5 L57.4,-6.8 L56.9,-7.1 L56.4,-7.4 L55.9,-7.8 L55.3,-8.1 L54.8,-8.4 L54.3,-8.7 L53.8,-9.1 L53.2,-9.4 L52.7,-9.8 L52.2,-10.1 L51.6,-10.5 L51.1,-10.8 L50.6,-11.1 L50.1,-11.5 L49.5,-11.8 L49,-12.2 L48.5,-12.5 L48,-12.9 L47.4,-13.2 L46.9,-13.5 L46.4,-13.8 L45.9,-14.2 L45.3,-14.5 L44.8,-14.8 L44.3,-15.1 L43.7,-15.4 L43.2,-15.7 L42.7,-16 L42.2,-16.2 L41.6,-16.5 L41.1,-16.8 L40.6,-17 L40.1,-17.3 L39.5,-17.5 L39,-17.7 L38.5,-18 L38,-18.2 L37.4,-18.4 L36.9,-18.6 L36.4,-18.8 L35.9,-19 L35.3,-19.1 L34.8,-19.3 L34.3,-19.4 L33.7,-19.6 L33.2,-19.7 L32.7,-19.9 L32.2,-20 L31.6,-20.1 L31.1,-20.2 L30.6,-20.3 L30.1,-20.4 L29.5,-20.5 L29,-20.6 L28.5,-20.7 L28,-20.8 L27.4,-20.8 L26.9,-20.9 L26.4,-21 L25.8,-21 L25.3,-21.1 L24.8,-21.1 L24.3,-21.2 L23.7,-21.2 L23.2,-21.2 L22.7,-21.3 L22.2,-21.3 L21.6,-21.3 L21.1,-21.4 L20.6,-21.4 L20.1,-21.4 L19.5,-21.4 L19,-21.5 L18.5,-21.5 L18,-21.5 L17.4,-21.5 L16.9,-21.5 L16.4,-21.5 L15.8,-21.5 L15.3,-21.5 L14.8,-21.6 L14.3,-21.6 L13.7,-21.6 L13.2,-21.6 L12.7,-21.6 L12.2,-21.6 L11.6,-21.6 L11.1,-21.6 L10.6,-21.6 L10.1,-21.6 L9.5,-21.6 L9,-21.6 L9,-21.6 L9,0 Z" fill="#b6d46a" stroke="#b6d46a" stroke-width="3" stroke-linejoin="round"></path><g clip-path="url(#rising-v5)"><path d="M23,0 L11.1,-23.8" stroke="#1c2a3d" stroke-width="1.3" opacity=".35"></path><path d="M34,0 L22.1,-23.8" stroke="#1c2a3d" stroke-width="1.3" opacity=".35"></path><path d="M45,0 L33.1,-23.8" stroke="#1c2a3d" stroke-width="1.3" opacity=".35"></path><path d="M56,0 L44.1,-23.8" stroke="#1c2a3d" stroke-width="1.3" opacity=".35"></path><path d="M67,0 L55.1,-23.8" stroke="#1c2a3d" stroke-width="1.3" opacity=".35"></path><path d="M78,0 L66.1,-23.8" stroke="#1c2a3d" stroke-width="1.3" opacity=".35"></path><path d="M89,0 L77.1,-23.8" stroke="#1c2a3d" stroke-width="1.3" opacity=".35"></path></g><clipPath id="rising-v6"><path d="M93.2,0 L93.2,0 L92.7,0 L92.2,0 L91.7,0 L91.1,0 L90.6,0 L90.1,0 L89.6,0 L89,0 L88.5,0 L88,0 L87.4,0 L86.9,0.1 L86.4,0.1 L85.9,0.1 L85.3,0.1 L84.8,0.1 L84.3,0.1 L83.8,0.1 L83.2,0.1 L82.7,0.2 L82.2,0.2 L81.7,0.2 L81.1,0.2 L80.6,0.3 L80.1,0.3 L79.6,0.3 L79,0.4 L78.5,0.4 L78,0.4 L77.4,0.5 L76.9,0.5 L76.4,0.6 L75.9,0.6 L75.3,0.7 L74.8,0.8 L74.3,0.8 L73.8,0.9 L73.2,1 L72.7,1.1 L72.2,1.2 L71.7,1.3 L71.1,1.4 L70.6,1.5 L70.1,1.6 L69.5,1.7 L69,1.9 L68.5,2 L68,2.2 L67.4,2.3 L66.9,2.5 L66.4,2.6 L65.9,2.8 L65.3,3 L64.8,3.2 L64.3,3.4 L63.8,3.6 L63.2,3.9 L62.7,4.1 L62.2,4.3 L61.7,4.6 L61.1,4.8 L60.6,5.1 L60.1,5.4 L59.5,5.6 L59,5.9 L58.5,6.2 L58,6.5 L57.4,6.8 L56.9,7.1 L56.4,7.4 L55.9,7.8 L55.3,8.1 L54.8,8.4 L54.3,8.7 L53.8,9.1 L53.2,9.4 L52.7,9.8 L52.2,10.1 L51.6,10.5 L51.1,10.8 L50.6,11.1 L50.1,11.5 L49.5,11.8 L49,12.2 L48.5,12.5 L48,12.9 L47.4,13.2 L46.9,13.5 L46.4,13.8 L45.9,14.2 L45.3,14.5 L44.8,14.8 L44.3,15.1 L43.7,15.4 L43.2,15.7 L42.7,16 L42.2,16.2 L41.6,16.5 L41.1,16.8 L40.6,17 L40.1,17.3 L39.5,17.5 L39,17.7 L38.5,18 L38,18.2 L37.4,18.4 L36.9,18.6 L36.4,18.8 L35.9,19 L35.3,19.1 L34.8,19.3 L34.3,19.4 L33.7,19.6 L33.2,19.7 L32.7,19.9 L32.2,20 L31.6,20.1 L31.1,20.2 L30.6,20.3 L30.1,20.4 L29.5,20.5 L29,20.6 L28.5,20.7 L28,20.8 L27.4,20.8 L26.9,20.9 L26.4,21 L25.8,21 L25.3,21.1 L24.8,21.1 L24.3,21.2 L23.7,21.2 L23.2,21.2 L22.7,21.3 L22.2,21.3 L21.6,21.3 L21.1,21.4 L20.6,21.4 L20.1,21.4 L19.5,21.4 L19,21.5 L18.5,21.5 L18,21.5 L17.4,21.5 L16.9,21.5 L16.4,21.5 L15.8,21.5 L15.3,21.5 L14.8,21.6 L14.3,21.6 L13.7,21.6 L13.2,21.6 L12.7,21.6 L12.2,21.6 L11.6,21.6 L11.1,21.6 L10.6,21.6 L10.1,21.6 L9.5,21.6 L9,21.6 L9,21.6 L9,0 Z"></path></clipPath><path d="M93.2,0 L93.2,0 L92.7,0 L92.2,0 L91.7,0 L91.1,0 L90.6,0 L90.1,0 L89.6,0 L89,0 L88.5,0 L88,0 L87.4,0 L86.9,0.1 L86.4,0.1 L85.9,0.1 L85.3,0.1 L84.8,0.1 L84.3,0.1 L83.8,0.1 L83.2,0.1 L82.7,0.2 L82.2,0.2 L81.7,0.2 L81.1,0.2 L80.6,0.3 L80.1,0.3 L79.6,0.3 L79,0.4 L78.5,0.4 L78,0.4 L77.4,0.5 L76.9,0.5 L76.4,0.6 L75.9,0.6 L75.3,0.7 L74.8,0.8 L74.3,0.8 L73.8,0.9 L73.2,1 L72.7,1.1 L72.2,1.2 L71.7,1.3 L71.1,1.4 L70.6,1.5 L70.1,1.6 L69.5,1.7 L69,1.9 L68.5,2 L68,2.2 L67.4,2.3 L66.9,2.5 L66.4,2.6 L65.9,2.8 L65.3,3 L64.8,3.2 L64.3,3.4 L63.8,3.6 L63.2,3.9 L62.7,4.1 L62.2,4.3 L61.7,4.6 L61.1,4.8 L60.6,5.1 L60.1,5.4 L59.5,5.6 L59,5.9 L58.5,6.2 L58,6.5 L57.4,6.8 L56.9,7.1 L56.4,7.4 L55.9,7.8 L55.3,8.1 L54.8,8.4 L54.3,8.7 L53.8,9.1 L53.2,9.4 L52.7,9.8 L52.2,10.1 L51.6,10.5 L51.1,10.8 L50.6,11.1 L50.1,11.5 L49.5,11.8 L49,12.2 L48.5,12.5 L48,12.9 L47.4,13.2 L46.9,13.5 L46.4,13.8 L45.9,14.2 L45.3,14.5 L44.8,14.8 L44.3,15.1 L43.7,15.4 L43.2,15.7 L42.7,16 L42.2,16.2 L41.6,16.5 L41.1,16.8 L40.6,17 L40.1,17.3 L39.5,17.5 L39,17.7 L38.5,18 L38,18.2 L37.4,18.4 L36.9,18.6 L36.4,18.8 L35.9,19 L35.3,19.1 L34.8,19.3 L34.3,19.4 L33.7,19.6 L33.2,19.7 L32.7,19.9 L32.2,20 L31.6,20.1 L31.1,20.2 L30.6,20.3 L30.1,20.4 L29.5,20.5 L29,20.6 L28.5,20.7 L28,20.8 L27.4,20.8 L26.9,20.9 L26.4,21 L25.8,21 L25.3,21.1 L24.8,21.1 L24.3,21.2 L23.7,21.2 L23.2,21.2 L22.7,21.3 L22.2,21.3 L21.6,21.3 L21.1,21.4 L20.6,21.4 L20.1,21.4 L19.5,21.4 L19,21.5 L18.5,21.5 L18,21.5 L17.4,21.5 L16.9,21.5 L16.4,21.5 L15.8,21.5 L15.3,21.5 L14.8,21.6 L14.3,21.6 L13.7,21.6 L13.2,21.6 L12.7,21.6 L12.2,21.6 L11.6,21.6 L11.1,21.6 L10.6,21.6 L10.1,21.6 L9.5,21.6 L9,21.6 L9,21.6 L9,0 Z" fill="#83984c" stroke="#83984c" stroke-width="3" stroke-linejoin="round"></path><g clip-path="url(#rising-v6)"><path d="M23,0 L11.1,23.8" stroke="#1c2a3d" stroke-width="1.3" opacity=".35"></path><path d="M34,0 L22.1,23.8" stroke="#1c2a3d" stroke-width="1.3" opacity=".35"></path><path d="M45,0 L33.1,23.8" stroke="#1c2a3d" stroke-width="1.3" opacity=".35"></path><path d="M56,0 L44.1,23.8" stroke="#1c2a3d" stroke-width="1.3" opacity=".35"></path><path d="M67,0 L55.1,23.8" stroke="#1c2a3d" stroke-width="1.3" opacity=".35"></path><path d="M78,0 L66.1,23.8" stroke="#1c2a3d" stroke-width="1.3" opacity=".35"></path><path d="M89,0 L77.1,23.8" stroke="#1c2a3d" stroke-width="1.3" opacity=".35"></path></g><path d="M7,0 L95.2,0" stroke="#dcc6a2" stroke-width="2.4" stroke-linecap="round"></path><path d="M-4,-5 L3,-5 L3,5 L-4,5" fill="#b6d46a" stroke="#b6d46a" stroke-width="2" stroke-linejoin="round"></path><path d="M162,-22.7 L162.3,-22.7 L162.3,-22.4 L162.3,-22.1 L162.4,-21.8 L162.4,-21.5 L162.5,-21.3 L162.6,-21 L162.6,-20.7 L162.7,-20.4 L162.8,-20.1 L162.9,-19.8 L163,-19.6 L163.1,-19.3 L163.3,-19 L163.4,-18.7 L163.5,-18.4 L163.7,-18.1 L163.9,-17.9 L164.1,-17.6 L164.3,-17.3 L164.5,-17 L164.8,-16.7 L165.1,-16.4 L165.4,-16.2 L165.7,-15.9 L166,-15.6 L166.4,-15.3 L166.8,-15 L167.2,-14.7 L167.7,-14.5 L168.1,-14.2 L168.6,-13.9 L169.2,-13.6 L169.7,-13.3 L170.3,-13 L171,-12.8 L171.6,-12.5 L172.3,-12.2 L173.1,-11.9 L173.8,-11.6 L174.6,-11.3 L175.4,-11.1 L176.3,-10.8 L177.2,-10.5 L178.1,-10.2 L179,-9.9 L180,-9.6 L181,-9.4 L182,-9.1 L183,-8.8 L184.1,-8.5 L185.1,-8.2 L186.2,-7.9 L187.3,-7.7 L188.4,-7.4 L189.5,-7.1 L190.6,-6.8 L191.7,-6.5 L192.8,-6.2 L193.9,-6 L194.9,-5.7 L196,-5.4 L197,-5.1 L198,-4.8 L199,-4.5 L199.9,-4.3 L200.8,-4 L201.6,-3.7 L202.4,-3.4 L203.2,-3.1 L203.9,-2.8 L204.5,-2.6 L205.1,-2.3 L205.6,-2 L206.1,-1.7 L206.5,-1.4 L206.8,-1.1 L207,-0.9 L207.2,-0.6 L207.3,-0.3 L207.4,0 L207.3,0.3 L207.2,0.6 L207,0.9 L206.8,1.1 L206.5,1.4 L206.1,1.7 L205.6,2 L205.1,2.3 L204.5,2.6 L203.9,2.8 L203.2,3.1 L202.4,3.4 L201.6,3.7 L200.8,4 L199.9,4.3 L199,4.5 L198,4.8 L197,5.1 L196,5.4 L194.9,5.7 L193.9,6 L192.8,6.2 L191.7,6.5 L190.6,6.8 L189.5,7.1 L188.4,7.4 L187.3,7.7 L186.2,7.9 L185.1,8.2 L184.1,8.5 L183,8.8 L182,9.1 L181,9.4 L180,9.6 L179,9.9 L178.1,10.2 L177.2,10.5 L176.3,10.8 L175.4,11.1 L174.6,11.3 L173.8,11.6 L173.1,11.9 L172.3,12.2 L171.6,12.5 L171,12.8 L170.3,13 L169.7,13.3 L169.2,13.6 L168.6,13.9 L168.1,14.2 L167.7,14.5 L167.2,14.7 L166.8,15 L166.4,15.3 L166,15.6 L165.7,15.9 L165.4,16.2 L165.1,16.4 L164.8,16.7 L164.5,17 L164.3,17.3 L164.1,17.6 L163.9,17.9 L163.7,18.1 L163.5,18.4 L163.4,18.7 L163.3,19 L163.1,19.3 L163,19.6 L162.9,19.8 L162.8,20.1 L162.7,20.4 L162.6,20.7 L162.6,21 L162.5,21.3 L162.4,21.5 L162.4,21.8 L162.3,22.1 L162.3,22.4 L162.3,22.7 L162,22.7 Z" fill="#1c2a3d" stroke="#1c2a3d" stroke-width="7" stroke-linejoin="round"></path><path d="M162,-22.7 L162.3,-22.7 L162.3,-22.4 L162.3,-22.1 L162.4,-21.8 L162.4,-21.5 L162.5,-21.3 L162.6,-21 L162.6,-20.7 L162.7,-20.4 L162.8,-20.1 L162.9,-19.8 L163,-19.6 L163.1,-19.3 L163.3,-19 L163.4,-18.7 L163.5,-18.4 L163.7,-18.1 L163.9,-17.9 L164.1,-17.6 L164.3,-17.3 L164.5,-17 L164.8,-16.7 L165.1,-16.4 L165.4,-16.2 L165.7,-15.9 L166,-15.6 L166.4,-15.3 L166.8,-15 L167.2,-14.7 L167.7,-14.5 L168.1,-14.2 L168.6,-13.9 L169.2,-13.6 L169.7,-13.3 L170.3,-13 L171,-12.8 L171.6,-12.5 L172.3,-12.2 L173.1,-11.9 L173.8,-11.6 L174.6,-11.3 L175.4,-11.1 L176.3,-10.8 L177.2,-10.5 L178.1,-10.2 L179,-9.9 L180,-9.6 L181,-9.4 L182,-9.1 L183,-8.8 L184.1,-8.5 L185.1,-8.2 L186.2,-7.9 L187.3,-7.7 L188.4,-7.4 L189.5,-7.1 L190.6,-6.8 L191.7,-6.5 L192.8,-6.2 L193.9,-6 L194.9,-5.7 L196,-5.4 L197,-5.1 L198,-4.8 L199,-4.5 L199.9,-4.3 L200.8,-4 L201.6,-3.7 L202.4,-3.4 L203.2,-3.1 L203.9,-2.8 L204.5,-2.6 L205.1,-2.3 L205.6,-2 L206.1,-1.7 L206.5,-1.4 L206.8,-1.1 L207,-0.9 L207.2,-0.6 L207.3,-0.3 L207.4,0 L207.3,0.3 L207.2,0.6 L207,0.9 L206.8,1.1 L206.5,1.4 L206.1,1.7 L205.6,2 L205.1,2.3 L204.5,2.6 L203.9,2.8 L203.2,3.1 L202.4,3.4 L201.6,3.7 L200.8,4 L199.9,4.3 L199,4.5 L198,4.8 L197,5.1 L196,5.4 L194.9,5.7 L193.9,6 L192.8,6.2 L191.7,6.5 L190.6,6.8 L189.5,7.1 L188.4,7.4 L187.3,7.7 L186.2,7.9 L185.1,8.2 L184.1,8.5 L183,8.8 L182,9.1 L181,9.4 L180,9.6 L179,9.9 L178.1,10.2 L177.2,10.5 L176.3,10.8 L175.4,11.1 L174.6,11.3 L173.8,11.6 L173.1,11.9 L172.3,12.2 L171.6,12.5 L171,12.8 L170.3,13 L169.7,13.3 L169.2,13.6 L168.6,13.9 L168.1,14.2 L167.7,14.5 L167.2,14.7 L166.8,15 L166.4,15.3 L166,15.6 L165.7,15.9 L165.4,16.2 L165.1,16.4 L164.8,16.7 L164.5,17 L164.3,17.3 L164.1,17.6 L163.9,17.9 L163.7,18.1 L163.5,18.4 L163.4,18.7 L163.3,19 L163.1,19.3 L163,19.6 L162.9,19.8 L162.8,20.1 L162.7,20.4 L162.6,20.7 L162.6,21 L162.5,21.3 L162.4,21.5 L162.4,21.8 L162.3,22.1 L162.3,22.4 L162.3,22.7 L162,22.7 Z" fill="#83984c" stroke="#83984c" stroke-width="2" stroke-linejoin="round"></path><clipPath id="rising-h7"><path d="M162,-22.7 L162.3,-22.7 L162.3,-22.4 L162.3,-22.1 L162.4,-21.8 L162.4,-21.5 L162.5,-21.3 L162.6,-21 L162.6,-20.7 L162.7,-20.4 L162.8,-20.1 L162.9,-19.8 L163,-19.6 L163.1,-19.3 L163.3,-19 L163.4,-18.7 L163.5,-18.4 L163.7,-18.1 L163.9,-17.9 L164.1,-17.6 L164.3,-17.3 L164.5,-17 L164.8,-16.7 L165.1,-16.4 L165.4,-16.2 L165.7,-15.9 L166,-15.6 L166.4,-15.3 L166.8,-15 L167.2,-14.7 L167.7,-14.5 L168.1,-14.2 L168.6,-13.9 L169.2,-13.6 L169.7,-13.3 L170.3,-13 L171,-12.8 L171.6,-12.5 L172.3,-12.2 L173.1,-11.9 L173.8,-11.6 L174.6,-11.3 L175.4,-11.1 L176.3,-10.8 L177.2,-10.5 L178.1,-10.2 L179,-9.9 L180,-9.6 L181,-9.4 L182,-9.1 L183,-8.8 L184.1,-8.5 L185.1,-8.2 L186.2,-7.9 L187.3,-7.7 L188.4,-7.4 L189.5,-7.1 L190.6,-6.8 L191.7,-6.5 L192.8,-6.2 L193.9,-6 L194.9,-5.7 L196,-5.4 L197,-5.1 L198,-4.8 L199,-4.5 L199.9,-4.3 L200.8,-4 L201.6,-3.7 L202.4,-3.4 L203.2,-3.1 L203.9,-2.8 L204.5,-2.6 L205.1,-2.3 L205.6,-2 L206.1,-1.7 L206.5,-1.4 L206.8,-1.1 L207,-0.9 L207.2,-0.6 L207.3,-0.3 L207.4,0 L207.3,0.3 L207.2,0.6 L207,0.9 L206.8,1.1 L206.5,1.4 L206.1,1.7 L205.6,2 L205.1,2.3 L204.5,2.6 L203.9,2.8 L203.2,3.1 L202.4,3.4 L201.6,3.7 L200.8,4 L199.9,4.3 L199,4.5 L198,4.8 L197,5.1 L196,5.4 L194.9,5.7 L193.9,6 L192.8,6.2 L191.7,6.5 L190.6,6.8 L189.5,7.1 L188.4,7.4 L187.3,7.7 L186.2,7.9 L185.1,8.2 L184.1,8.5 L183,8.8 L182,9.1 L181,9.4 L180,9.6 L179,9.9 L178.1,10.2 L177.2,10.5 L176.3,10.8 L175.4,11.1 L174.6,11.3 L173.8,11.6 L173.1,11.9 L172.3,12.2 L171.6,12.5 L171,12.8 L170.3,13 L169.7,13.3 L169.2,13.6 L168.6,13.9 L168.1,14.2 L167.7,14.5 L167.2,14.7 L166.8,15 L166.4,15.3 L166,15.6 L165.7,15.9 L165.4,16.2 L165.1,16.4 L164.8,16.7 L164.5,17 L164.3,17.3 L164.1,17.6 L163.9,17.9 L163.7,18.1 L163.5,18.4 L163.4,18.7 L163.3,19 L163.1,19.3 L163,19.6 L162.9,19.8 L162.8,20.1 L162.7,20.4 L162.6,20.7 L162.6,21 L162.5,21.3 L162.4,21.5 L162.4,21.8 L162.3,22.1 L162.3,22.4 L162.3,22.7 L162,22.7 Z"></path></clipPath><g clip-path="url(#rising-h7)"><rect x="160" y="-26.7" width="51.4" height="26.7" fill="#b6d46a"></rect></g><path d="M161,-12.5 L161,12.5" stroke="#dcc6a2" stroke-width="4" stroke-linecap="round"></path></g><g transform="translate(256.2 314.4) rotate(-30)"><path d="M2,0 L164,0" stroke="#dcc6a2" stroke-width="5.94" stroke-linecap="round"></path><clipPath id="rising-v8"><path d="M93.2,0 L93.2,-0 L93,-0 L92.7,-0 L92.4,-0 L92.1,-0 L91.8,-0 L91.6,-0 L91.3,-0 L91,-0 L90.7,-0 L90.4,-0 L90.2,-0 L89.9,-0 L89.6,-0 L89.3,-0 L89,-0 L88.7,-0 L88.5,-0.1 L88.2,-0.1 L87.9,-0.1 L87.6,-0.1 L87.3,-0.1 L87.1,-0.1 L86.8,-0.1 L86.5,-0.1 L86.2,-0.2 L85.9,-0.2 L85.7,-0.2 L85.4,-0.2 L85.1,-0.2 L84.8,-0.3 L84.5,-0.3 L84.3,-0.3 L84,-0.4 L83.7,-0.4 L83.4,-0.4 L83.1,-0.5 L82.9,-0.5 L82.6,-0.6 L82.3,-0.6 L82,-0.7 L81.7,-0.8 L81.4,-0.8 L81.2,-0.9 L80.9,-1 L80.6,-1 L80.3,-1.1 L80,-1.2 L79.8,-1.3 L79.5,-1.4 L79.2,-1.5 L78.9,-1.6 L78.6,-1.7 L78.4,-1.8 L78.1,-1.9 L77.8,-2 L77.5,-2.1 L77.2,-2.2 L77,-2.3 L76.7,-2.4 L76.4,-2.6 L76.1,-2.7 L75.8,-2.8 L75.5,-2.9 L75.3,-3 L75,-3.2 L74.7,-3.3 L74.4,-3.4 L74.1,-3.5 L73.9,-3.6 L73.6,-3.8 L73.3,-3.9 L73,-4 L72.7,-4.1 L72.5,-4.2 L72.2,-4.3 L71.9,-4.4 L71.6,-4.5 L71.3,-4.6 L71.1,-4.7 L70.8,-4.8 L70.5,-4.9 L70.2,-5 L69.9,-5 L69.7,-5.1 L69.4,-5.2 L69.1,-5.3 L68.8,-5.3 L68.5,-5.4 L68.2,-5.4 L68,-5.5 L67.7,-5.5 L67.4,-5.6 L67.1,-5.6 L66.8,-5.7 L66.6,-5.7 L66.3,-5.8 L66,-5.8 L65.7,-5.8 L65.4,-5.9 L65.2,-5.9 L64.9,-5.9 L64.6,-6 L64.3,-6 L64,-6.1 L63.8,-6.1 L63.5,-6.1 L63.2,-6.2 L62.9,-6.2 L62.6,-6.2 L62.4,-6.3 L62.1,-6.3 L61.8,-6.4 L61.5,-6.4 L61.2,-6.5 L60.9,-6.6 L60.7,-6.6 L60.4,-6.7 L60.1,-6.8 L59.8,-6.9 L59.5,-7 L59.3,-7 L59,-7.1 L58.7,-7.3 L58.4,-7.4 L58.1,-7.5 L57.9,-7.6 L57.6,-7.7 L57.3,-7.9 L57,-8 L56.7,-8.2 L56.5,-8.3 L56.2,-8.5 L55.9,-8.7 L55.6,-8.8 L55.3,-9 L55.1,-9.2 L54.8,-9.4 L54.5,-9.5 L54.2,-9.7 L53.9,-9.9 L53.6,-10.1 L53.4,-10.3 L53.1,-10.5 L52.8,-10.7 L52.5,-10.9 L52.2,-11.1 L52,-11.2 L51.7,-11.4 L51.4,-11.6 L51.1,-11.8 L50.8,-11.9 L50.6,-12.1 L50.3,-12.3 L50,-12.4 L49.7,-12.6 L49.4,-12.7 L49.2,-12.9 L48.9,-13 L48.6,-13.2 L48.3,-13.3 L48,-13.4 L47.8,-13.5 L47.5,-13.6 L47.2,-13.8 L46.9,-13.9 L46.6,-14 L46.3,-14.1 L46.1,-14.2 L45.8,-14.3 L45.5,-14.3 L45.2,-14.4 L44.9,-14.5 L44.7,-14.6 L44.4,-14.7 L44.1,-14.8 L43.8,-14.8 L43.5,-14.9 L43.3,-15 L43,-15.1 L42.7,-15.2 L42.4,-15.2 L42.1,-15.3 L41.9,-15.4 L41.6,-15.5 L41.3,-15.6 L41,-15.7 L40.7,-15.7 L40.4,-15.8 L40.2,-15.9 L39.9,-16 L39.6,-16.1 L39.3,-16.2 L39,-16.3 L38.8,-16.4 L38.5,-16.5 L38.2,-16.6 L37.9,-16.7 L37.6,-16.8 L37.4,-16.9 L37.1,-17 L36.8,-17.1 L36.5,-17.2 L36.2,-17.3 L36,-17.4 L35.7,-17.5 L35.4,-17.6 L35.1,-17.7 L34.8,-17.8 L34.6,-17.9 L34.3,-18 L34,-18.1 L33.7,-18.2 L33.4,-18.3 L33.1,-18.4 L32.9,-18.5 L32.6,-18.6 L32.3,-18.7 L32,-18.8 L31.7,-18.9 L31.5,-19 L31.2,-19.1 L30.9,-19.2 L30.6,-19.3 L30.3,-19.4 L30.1,-19.5 L29.8,-19.6 L29.5,-19.7 L29.2,-19.7 L28.9,-19.8 L28.7,-19.9 L28.4,-20 L28.1,-20.1 L27.8,-20.1 L27.5,-20.2 L27.3,-20.3 L27,-20.3 L26.7,-20.4 L26.4,-20.5 L26.1,-20.5 L25.8,-20.6 L25.6,-20.6 L25.3,-20.7 L25,-20.8 L24.7,-20.8 L24.4,-20.8 L24.2,-20.9 L23.9,-20.9 L23.6,-21 L23.3,-21 L23,-21.1 L22.8,-21.1 L22.5,-21.1 L22.2,-21.2 L21.9,-21.2 L21.6,-21.2 L21.4,-21.2 L21.1,-21.3 L20.8,-21.3 L20.5,-21.3 L20.2,-21.3 L20,-21.4 L19.7,-21.4 L19.4,-21.4 L19.1,-21.4 L18.8,-21.4 L18.5,-21.4 L18.3,-21.5 L18,-21.5 L17.7,-21.5 L17.4,-21.5 L17.1,-21.5 L16.9,-21.5 L16.6,-21.5 L16.3,-21.5 L16,-21.5 L15.7,-21.5 L15.5,-21.5 L15.2,-21.5 L14.9,-21.6 L14.6,-21.6 L14.3,-21.6 L14.1,-21.6 L13.8,-21.6 L13.5,-21.6 L13.2,-21.6 L12.9,-21.6 L12.7,-21.6 L12.4,-21.6 L12.1,-21.6 L11.8,-21.6 L11.5,-21.6 L11.2,-21.6 L11,-21.6 L10.7,-21.6 L10.4,-21.6 L10.1,-21.6 L9.8,-21.6 L9.6,-21.6 L9.3,-21.6 L9,-21.6 L9,-21.6 L9,0 Z"></path></clipPath><path d="M93.2,0 L93.2,-0 L93,-0 L92.7,-0 L92.4,-0 L92.1,-0 L91.8,-0 L91.6,-0 L91.3,-0 L91,-0 L90.7,-0 L90.4,-0 L90.2,-0 L89.9,-0 L89.6,-0 L89.3,-0 L89,-0 L88.7,-0 L88.5,-0.1 L88.2,-0.1 L87.9,-0.1 L87.6,-0.1 L87.3,-0.1 L87.1,-0.1 L86.8,-0.1 L86.5,-0.1 L86.2,-0.2 L85.9,-0.2 L85.7,-0.2 L85.4,-0.2 L85.1,-0.2 L84.8,-0.3 L84.5,-0.3 L84.3,-0.3 L84,-0.4 L83.7,-0.4 L83.4,-0.4 L83.1,-0.5 L82.9,-0.5 L82.6,-0.6 L82.3,-0.6 L82,-0.7 L81.7,-0.8 L81.4,-0.8 L81.2,-0.9 L80.9,-1 L80.6,-1 L80.3,-1.1 L80,-1.2 L79.8,-1.3 L79.5,-1.4 L79.2,-1.5 L78.9,-1.6 L78.6,-1.7 L78.4,-1.8 L78.1,-1.9 L77.8,-2 L77.5,-2.1 L77.2,-2.2 L77,-2.3 L76.7,-2.4 L76.4,-2.6 L76.1,-2.7 L75.8,-2.8 L75.5,-2.9 L75.3,-3 L75,-3.2 L74.7,-3.3 L74.4,-3.4 L74.1,-3.5 L73.9,-3.6 L73.6,-3.8 L73.3,-3.9 L73,-4 L72.7,-4.1 L72.5,-4.2 L72.2,-4.3 L71.9,-4.4 L71.6,-4.5 L71.3,-4.6 L71.1,-4.7 L70.8,-4.8 L70.5,-4.9 L70.2,-5 L69.9,-5 L69.7,-5.1 L69.4,-5.2 L69.1,-5.3 L68.8,-5.3 L68.5,-5.4 L68.2,-5.4 L68,-5.5 L67.7,-5.5 L67.4,-5.6 L67.1,-5.6 L66.8,-5.7 L66.6,-5.7 L66.3,-5.8 L66,-5.8 L65.7,-5.8 L65.4,-5.9 L65.2,-5.9 L64.9,-5.9 L64.6,-6 L64.3,-6 L64,-6.1 L63.8,-6.1 L63.5,-6.1 L63.2,-6.2 L62.9,-6.2 L62.6,-6.2 L62.4,-6.3 L62.1,-6.3 L61.8,-6.4 L61.5,-6.4 L61.2,-6.5 L60.9,-6.6 L60.7,-6.6 L60.4,-6.7 L60.1,-6.8 L59.8,-6.9 L59.5,-7 L59.3,-7 L59,-7.1 L58.7,-7.3 L58.4,-7.4 L58.1,-7.5 L57.9,-7.6 L57.6,-7.7 L57.3,-7.9 L57,-8 L56.7,-8.2 L56.5,-8.3 L56.2,-8.5 L55.9,-8.7 L55.6,-8.8 L55.3,-9 L55.1,-9.2 L54.8,-9.4 L54.5,-9.5 L54.2,-9.7 L53.9,-9.9 L53.6,-10.1 L53.4,-10.3 L53.1,-10.5 L52.8,-10.7 L52.5,-10.9 L52.2,-11.1 L52,-11.2 L51.7,-11.4 L51.4,-11.6 L51.1,-11.8 L50.8,-11.9 L50.6,-12.1 L50.3,-12.3 L50,-12.4 L49.7,-12.6 L49.4,-12.7 L49.2,-12.9 L48.9,-13 L48.6,-13.2 L48.3,-13.3 L48,-13.4 L47.8,-13.5 L47.5,-13.6 L47.2,-13.8 L46.9,-13.9 L46.6,-14 L46.3,-14.1 L46.1,-14.2 L45.8,-14.3 L45.5,-14.3 L45.2,-14.4 L44.9,-14.5 L44.7,-14.6 L44.4,-14.7 L44.1,-14.8 L43.8,-14.8 L43.5,-14.9 L43.3,-15 L43,-15.1 L42.7,-15.2 L42.4,-15.2 L42.1,-15.3 L41.9,-15.4 L41.6,-15.5 L41.3,-15.6 L41,-15.7 L40.7,-15.7 L40.4,-15.8 L40.2,-15.9 L39.9,-16 L39.6,-16.1 L39.3,-16.2 L39,-16.3 L38.8,-16.4 L38.5,-16.5 L38.2,-16.6 L37.9,-16.7 L37.6,-16.8 L37.4,-16.9 L37.1,-17 L36.8,-17.1 L36.5,-17.2 L36.2,-17.3 L36,-17.4 L35.7,-17.5 L35.4,-17.6 L35.1,-17.7 L34.8,-17.8 L34.6,-17.9 L34.3,-18 L34,-18.1 L33.7,-18.2 L33.4,-18.3 L33.1,-18.4 L32.9,-18.5 L32.6,-18.6 L32.3,-18.7 L32,-18.8 L31.7,-18.9 L31.5,-19 L31.2,-19.1 L30.9,-19.2 L30.6,-19.3 L30.3,-19.4 L30.1,-19.5 L29.8,-19.6 L29.5,-19.7 L29.2,-19.7 L28.9,-19.8 L28.7,-19.9 L28.4,-20 L28.1,-20.1 L27.8,-20.1 L27.5,-20.2 L27.3,-20.3 L27,-20.3 L26.7,-20.4 L26.4,-20.5 L26.1,-20.5 L25.8,-20.6 L25.6,-20.6 L25.3,-20.7 L25,-20.8 L24.7,-20.8 L24.4,-20.8 L24.2,-20.9 L23.9,-20.9 L23.6,-21 L23.3,-21 L23,-21.1 L22.8,-21.1 L22.5,-21.1 L22.2,-21.2 L21.9,-21.2 L21.6,-21.2 L21.4,-21.2 L21.1,-21.3 L20.8,-21.3 L20.5,-21.3 L20.2,-21.3 L20,-21.4 L19.7,-21.4 L19.4,-21.4 L19.1,-21.4 L18.8,-21.4 L18.5,-21.4 L18.3,-21.5 L18,-21.5 L17.7,-21.5 L17.4,-21.5 L17.1,-21.5 L16.9,-21.5 L16.6,-21.5 L16.3,-21.5 L16,-21.5 L15.7,-21.5 L15.5,-21.5 L15.2,-21.5 L14.9,-21.6 L14.6,-21.6 L14.3,-21.6 L14.1,-21.6 L13.8,-21.6 L13.5,-21.6 L13.2,-21.6 L12.9,-21.6 L12.7,-21.6 L12.4,-21.6 L12.1,-21.6 L11.8,-21.6 L11.5,-21.6 L11.2,-21.6 L11,-21.6 L10.7,-21.6 L10.4,-21.6 L10.1,-21.6 L9.8,-21.6 L9.6,-21.6 L9.3,-21.6 L9,-21.6 L9,-21.6 L9,0 Z" fill="#4cb5a8" stroke="#4cb5a8" stroke-width="3" stroke-linejoin="round"></path><g clip-path="url(#rising-v8)"><path d="M23,0 L11.1,-23.8" stroke="#1c2a3d" stroke-width="1.3" opacity=".35"></path><path d="M34,0 L22.1,-23.8" stroke="#1c2a3d" stroke-width="1.3" opacity=".35"></path><path d="M45,0 L33.1,-23.8" stroke="#1c2a3d" stroke-width="1.3" opacity=".35"></path><path d="M56,0 L44.1,-23.8" stroke="#1c2a3d" stroke-width="1.3" opacity=".35"></path><path d="M67,0 L55.1,-23.8" stroke="#1c2a3d" stroke-width="1.3" opacity=".35"></path><path d="M78,0 L66.1,-23.8" stroke="#1c2a3d" stroke-width="1.3" opacity=".35"></path><path d="M89,0 L77.1,-23.8" stroke="#1c2a3d" stroke-width="1.3" opacity=".35"></path></g><clipPath id="rising-v9"><path d="M93.2,0 L93.2,0 L93,0 L92.7,0 L92.4,0 L92.1,0 L91.8,0 L91.6,0 L91.3,0 L91,0 L90.7,0 L90.4,0 L90.2,0 L89.9,0 L89.6,0 L89.3,0 L89,0 L88.7,0 L88.5,0.1 L88.2,0.1 L87.9,0.1 L87.6,0.1 L87.3,0.1 L87.1,0.1 L86.8,0.1 L86.5,0.1 L86.2,0.2 L85.9,0.2 L85.7,0.2 L85.4,0.2 L85.1,0.2 L84.8,0.3 L84.5,0.3 L84.3,0.3 L84,0.4 L83.7,0.4 L83.4,0.4 L83.1,0.5 L82.9,0.5 L82.6,0.6 L82.3,0.6 L82,0.7 L81.7,0.8 L81.4,0.8 L81.2,0.9 L80.9,1 L80.6,1 L80.3,1.1 L80,1.2 L79.8,1.3 L79.5,1.4 L79.2,1.5 L78.9,1.6 L78.6,1.7 L78.4,1.8 L78.1,1.9 L77.8,2 L77.5,2.1 L77.2,2.2 L77,2.3 L76.7,2.4 L76.4,2.6 L76.1,2.7 L75.8,2.8 L75.5,2.9 L75.3,3 L75,3.2 L74.7,3.3 L74.4,3.4 L74.1,3.5 L73.9,3.6 L73.6,3.8 L73.3,3.9 L73,4 L72.7,4.1 L72.5,4.2 L72.2,4.3 L71.9,4.4 L71.6,4.5 L71.3,4.6 L71.1,4.7 L70.8,4.8 L70.5,4.9 L70.2,5 L69.9,5 L69.7,5.1 L69.4,5.2 L69.1,5.3 L68.8,5.3 L68.5,5.4 L68.2,5.4 L68,5.5 L67.7,5.5 L67.4,5.6 L67.1,5.6 L66.8,5.7 L66.6,5.7 L66.3,5.8 L66,5.8 L65.7,5.8 L65.4,5.9 L65.2,5.9 L64.9,5.9 L64.6,6 L64.3,6 L64,6.1 L63.8,6.1 L63.5,6.1 L63.2,6.2 L62.9,6.2 L62.6,6.2 L62.4,6.3 L62.1,6.3 L61.8,6.4 L61.5,6.4 L61.2,6.5 L60.9,6.6 L60.7,6.6 L60.4,6.7 L60.1,6.8 L59.8,6.9 L59.5,7 L59.3,7 L59,7.1 L58.7,7.3 L58.4,7.4 L58.1,7.5 L57.9,7.6 L57.6,7.7 L57.3,7.9 L57,8 L56.7,8.2 L56.5,8.3 L56.2,8.5 L55.9,8.7 L55.6,8.8 L55.3,9 L55.1,9.2 L54.8,9.4 L54.5,9.5 L54.2,9.7 L53.9,9.9 L53.6,10.1 L53.4,10.3 L53.1,10.5 L52.8,10.7 L52.5,10.9 L52.2,11.1 L52,11.2 L51.7,11.4 L51.4,11.6 L51.1,11.8 L50.8,11.9 L50.6,12.1 L50.3,12.3 L50,12.4 L49.7,12.6 L49.4,12.7 L49.2,12.9 L48.9,13 L48.6,13.2 L48.3,13.3 L48,13.4 L47.8,13.5 L47.5,13.6 L47.2,13.8 L46.9,13.9 L46.6,14 L46.3,14.1 L46.1,14.2 L45.8,14.3 L45.5,14.3 L45.2,14.4 L44.9,14.5 L44.7,14.6 L44.4,14.7 L44.1,14.8 L43.8,14.8 L43.5,14.9 L43.3,15 L43,15.1 L42.7,15.2 L42.4,15.2 L42.1,15.3 L41.9,15.4 L41.6,15.5 L41.3,15.6 L41,15.7 L40.7,15.7 L40.4,15.8 L40.2,15.9 L39.9,16 L39.6,16.1 L39.3,16.2 L39,16.3 L38.8,16.4 L38.5,16.5 L38.2,16.6 L37.9,16.7 L37.6,16.8 L37.4,16.9 L37.1,17 L36.8,17.1 L36.5,17.2 L36.2,17.3 L36,17.4 L35.7,17.5 L35.4,17.6 L35.1,17.7 L34.8,17.8 L34.6,17.9 L34.3,18 L34,18.1 L33.7,18.2 L33.4,18.3 L33.1,18.4 L32.9,18.5 L32.6,18.6 L32.3,18.7 L32,18.8 L31.7,18.9 L31.5,19 L31.2,19.1 L30.9,19.2 L30.6,19.3 L30.3,19.4 L30.1,19.5 L29.8,19.6 L29.5,19.7 L29.2,19.7 L28.9,19.8 L28.7,19.9 L28.4,20 L28.1,20.1 L27.8,20.1 L27.5,20.2 L27.3,20.3 L27,20.3 L26.7,20.4 L26.4,20.5 L26.1,20.5 L25.8,20.6 L25.6,20.6 L25.3,20.7 L25,20.8 L24.7,20.8 L24.4,20.8 L24.2,20.9 L23.9,20.9 L23.6,21 L23.3,21 L23,21.1 L22.8,21.1 L22.5,21.1 L22.2,21.2 L21.9,21.2 L21.6,21.2 L21.4,21.2 L21.1,21.3 L20.8,21.3 L20.5,21.3 L20.2,21.3 L20,21.4 L19.7,21.4 L19.4,21.4 L19.1,21.4 L18.8,21.4 L18.5,21.4 L18.3,21.5 L18,21.5 L17.7,21.5 L17.4,21.5 L17.1,21.5 L16.9,21.5 L16.6,21.5 L16.3,21.5 L16,21.5 L15.7,21.5 L15.5,21.5 L15.2,21.5 L14.9,21.6 L14.6,21.6 L14.3,21.6 L14.1,21.6 L13.8,21.6 L13.5,21.6 L13.2,21.6 L12.9,21.6 L12.7,21.6 L12.4,21.6 L12.1,21.6 L11.8,21.6 L11.5,21.6 L11.2,21.6 L11,21.6 L10.7,21.6 L10.4,21.6 L10.1,21.6 L9.8,21.6 L9.6,21.6 L9.3,21.6 L9,21.6 L9,21.6 L9,0 Z"></path></clipPath><path d="M93.2,0 L93.2,0 L93,0 L92.7,0 L92.4,0 L92.1,0 L91.8,0 L91.6,0 L91.3,0 L91,0 L90.7,0 L90.4,0 L90.2,0 L89.9,0 L89.6,0 L89.3,0 L89,0 L88.7,0 L88.5,0.1 L88.2,0.1 L87.9,0.1 L87.6,0.1 L87.3,0.1 L87.1,0.1 L86.8,0.1 L86.5,0.1 L86.2,0.2 L85.9,0.2 L85.7,0.2 L85.4,0.2 L85.1,0.2 L84.8,0.3 L84.5,0.3 L84.3,0.3 L84,0.4 L83.7,0.4 L83.4,0.4 L83.1,0.5 L82.9,0.5 L82.6,0.6 L82.3,0.6 L82,0.7 L81.7,0.8 L81.4,0.8 L81.2,0.9 L80.9,1 L80.6,1 L80.3,1.1 L80,1.2 L79.8,1.3 L79.5,1.4 L79.2,1.5 L78.9,1.6 L78.6,1.7 L78.4,1.8 L78.1,1.9 L77.8,2 L77.5,2.1 L77.2,2.2 L77,2.3 L76.7,2.4 L76.4,2.6 L76.1,2.7 L75.8,2.8 L75.5,2.9 L75.3,3 L75,3.2 L74.7,3.3 L74.4,3.4 L74.1,3.5 L73.9,3.6 L73.6,3.8 L73.3,3.9 L73,4 L72.7,4.1 L72.5,4.2 L72.2,4.3 L71.9,4.4 L71.6,4.5 L71.3,4.6 L71.1,4.7 L70.8,4.8 L70.5,4.9 L70.2,5 L69.9,5 L69.7,5.1 L69.4,5.2 L69.1,5.3 L68.8,5.3 L68.5,5.4 L68.2,5.4 L68,5.5 L67.7,5.5 L67.4,5.6 L67.1,5.6 L66.8,5.7 L66.6,5.7 L66.3,5.8 L66,5.8 L65.7,5.8 L65.4,5.9 L65.2,5.9 L64.9,5.9 L64.6,6 L64.3,6 L64,6.1 L63.8,6.1 L63.5,6.1 L63.2,6.2 L62.9,6.2 L62.6,6.2 L62.4,6.3 L62.1,6.3 L61.8,6.4 L61.5,6.4 L61.2,6.5 L60.9,6.6 L60.7,6.6 L60.4,6.7 L60.1,6.8 L59.8,6.9 L59.5,7 L59.3,7 L59,7.1 L58.7,7.3 L58.4,7.4 L58.1,7.5 L57.9,7.6 L57.6,7.7 L57.3,7.9 L57,8 L56.7,8.2 L56.5,8.3 L56.2,8.5 L55.9,8.7 L55.6,8.8 L55.3,9 L55.1,9.2 L54.8,9.4 L54.5,9.5 L54.2,9.7 L53.9,9.9 L53.6,10.1 L53.4,10.3 L53.1,10.5 L52.8,10.7 L52.5,10.9 L52.2,11.1 L52,11.2 L51.7,11.4 L51.4,11.6 L51.1,11.8 L50.8,11.9 L50.6,12.1 L50.3,12.3 L50,12.4 L49.7,12.6 L49.4,12.7 L49.2,12.9 L48.9,13 L48.6,13.2 L48.3,13.3 L48,13.4 L47.8,13.5 L47.5,13.6 L47.2,13.8 L46.9,13.9 L46.6,14 L46.3,14.1 L46.1,14.2 L45.8,14.3 L45.5,14.3 L45.2,14.4 L44.9,14.5 L44.7,14.6 L44.4,14.7 L44.1,14.8 L43.8,14.8 L43.5,14.9 L43.3,15 L43,15.1 L42.7,15.2 L42.4,15.2 L42.1,15.3 L41.9,15.4 L41.6,15.5 L41.3,15.6 L41,15.7 L40.7,15.7 L40.4,15.8 L40.2,15.9 L39.9,16 L39.6,16.1 L39.3,16.2 L39,16.3 L38.8,16.4 L38.5,16.5 L38.2,16.6 L37.9,16.7 L37.6,16.8 L37.4,16.9 L37.1,17 L36.8,17.1 L36.5,17.2 L36.2,17.3 L36,17.4 L35.7,17.5 L35.4,17.6 L35.1,17.7 L34.8,17.8 L34.6,17.9 L34.3,18 L34,18.1 L33.7,18.2 L33.4,18.3 L33.1,18.4 L32.9,18.5 L32.6,18.6 L32.3,18.7 L32,18.8 L31.7,18.9 L31.5,19 L31.2,19.1 L30.9,19.2 L30.6,19.3 L30.3,19.4 L30.1,19.5 L29.8,19.6 L29.5,19.7 L29.2,19.7 L28.9,19.8 L28.7,19.9 L28.4,20 L28.1,20.1 L27.8,20.1 L27.5,20.2 L27.3,20.3 L27,20.3 L26.7,20.4 L26.4,20.5 L26.1,20.5 L25.8,20.6 L25.6,20.6 L25.3,20.7 L25,20.8 L24.7,20.8 L24.4,20.8 L24.2,20.9 L23.9,20.9 L23.6,21 L23.3,21 L23,21.1 L22.8,21.1 L22.5,21.1 L22.2,21.2 L21.9,21.2 L21.6,21.2 L21.4,21.2 L21.1,21.3 L20.8,21.3 L20.5,21.3 L20.2,21.3 L20,21.4 L19.7,21.4 L19.4,21.4 L19.1,21.4 L18.8,21.4 L18.5,21.4 L18.3,21.5 L18,21.5 L17.7,21.5 L17.4,21.5 L17.1,21.5 L16.9,21.5 L16.6,21.5 L16.3,21.5 L16,21.5 L15.7,21.5 L15.5,21.5 L15.2,21.5 L14.9,21.6 L14.6,21.6 L14.3,21.6 L14.1,21.6 L13.8,21.6 L13.5,21.6 L13.2,21.6 L12.9,21.6 L12.7,21.6 L12.4,21.6 L12.1,21.6 L11.8,21.6 L11.5,21.6 L11.2,21.6 L11,21.6 L10.7,21.6 L10.4,21.6 L10.1,21.6 L9.8,21.6 L9.6,21.6 L9.3,21.6 L9,21.6 L9,21.6 L9,0 Z" fill="#368278" stroke="#368278" stroke-width="3" stroke-linejoin="round"></path><g clip-path="url(#rising-v9)"><path d="M23,0 L11.1,23.8" stroke="#1c2a3d" stroke-width="1.3" opacity=".35"></path><path d="M34,0 L22.1,23.8" stroke="#1c2a3d" stroke-width="1.3" opacity=".35"></path><path d="M45,0 L33.1,23.8" stroke="#1c2a3d" stroke-width="1.3" opacity=".35"></path><path d="M56,0 L44.1,23.8" stroke="#1c2a3d" stroke-width="1.3" opacity=".35"></path><path d="M67,0 L55.1,23.8" stroke="#1c2a3d" stroke-width="1.3" opacity=".35"></path><path d="M78,0 L66.1,23.8" stroke="#1c2a3d" stroke-width="1.3" opacity=".35"></path><path d="M89,0 L77.1,23.8" stroke="#1c2a3d" stroke-width="1.3" opacity=".35"></path></g><path d="M7,0 L95.2,0" stroke="#dcc6a2" stroke-width="2.4" stroke-linecap="round"></path><path d="M-4,-5 L3,-5 L3,5 L-4,5" fill="#4cb5a8" stroke="#4cb5a8" stroke-width="2" stroke-linejoin="round"></path><path d="M162,-21.2 L162.2,-21.2 L162.2,-21.1 L162.2,-20.9 L162.3,-20.8 L162.3,-20.6 L162.4,-20.5 L162.4,-20.3 L162.5,-20.2 L162.6,-20 L162.7,-19.9 L162.8,-19.8 L162.9,-19.6 L163,-19.5 L163.1,-19.3 L163.3,-19.2 L163.4,-19 L163.6,-18.9 L163.8,-18.7 L164.1,-18.6 L164.3,-18.4 L164.6,-18.3 L164.9,-18.1 L165.2,-18 L165.6,-17.9 L165.9,-17.7 L166.4,-17.6 L166.8,-17.4 L167.3,-17.3 L167.8,-17.1 L168.3,-17 L168.9,-16.8 L169.5,-16.7 L170.1,-16.5 L170.8,-16.4 L171.5,-16.2 L172.2,-16.1 L172.9,-15.9 L173.7,-15.8 L174.5,-15.7 L175.4,-15.5 L176.2,-15.4 L177,-15.2 L177.9,-15.1 L178.8,-14.9 L179.7,-14.8 L180.6,-14.6 L181.4,-14.5 L182.3,-14.3 L183.1,-14.2 L184,-14 L184.8,-13.9 L185.5,-13.8 L186.3,-13.6 L187,-13.5 L187.6,-13.3 L188.2,-13.2 L188.8,-13 L189.3,-12.9 L189.7,-12.7 L190.1,-12.6 L190.4,-12.4 L190.6,-12.3 L190.8,-12.1 L190.9,-12 L190.9,-11.9 L190.9,-11.7 L190.8,-11.6 L190.6,-11.4 L190.3,-11.3 L190,-11.1 L189.6,-11 L189.1,-10.8 L188.6,-10.7 L188,-10.5 L187.4,-10.4 L186.7,-10.2 L186,-10.1 L185.3,-9.9 L184.5,-9.8 L183.7,-9.7 L182.9,-9.5 L182,-9.4 L181.2,-9.2 L180.4,-9.1 L179.5,-8.9 L178.7,-8.8 L177.9,-8.6 L177,-8.5 L176.3,-8.3 L175.5,-8.2 L174.8,-8 L174.1,-7.9 L173.5,-7.8 L172.9,-7.6 L172.3,-7.5 L171.8,-7.3 L171.4,-7.2 L171,-7 L170.7,-6.9 L170.5,-6.7 L170.3,-6.6 L170.2,-6.4 L170.2,-6.3 L170.3,-6.1 L170.4,-6 L170.6,-5.9 L170.9,-5.7 L171.3,-5.6 L171.8,-5.4 L172.4,-5.3 L173,-5.1 L173.8,-5 L174.6,-4.8 L175.5,-4.7 L176.5,-4.5 L177.5,-4.4 L178.7,-4.2 L179.9,-4.1 L181.2,-4 L182.5,-3.8 L183.9,-3.7 L185.3,-3.5 L186.8,-3.4 L188.3,-3.2 L189.8,-3.1 L191.3,-2.9 L192.8,-2.8 L194.2,-2.6 L195.7,-2.5 L197.1,-2.3 L198.5,-2.2 L199.8,-2 L201,-1.9 L202.2,-1.8 L203.2,-1.6 L204.2,-1.5 L205,-1.3 L205.7,-1.2 L206.3,-1 L206.8,-0.9 L207.1,-0.7 L207.3,-0.6 L207.4,-0.4 L207.3,-0.3 L207.1,-0.1 L206.8,0 L206.3,0.1 L205.8,0.3 L205.1,0.4 L204.3,0.6 L203.4,0.7 L202.5,0.9 L201.5,1 L200.4,1.2 L199.3,1.3 L198.2,1.5 L197,1.6 L195.8,1.8 L194.6,1.9 L193.4,2 L192.3,2.2 L191.1,2.3 L190,2.5 L189,2.6 L188,2.8 L187,2.9 L186.1,3.1 L185.3,3.2 L184.6,3.4 L183.9,3.5 L183.3,3.7 L182.8,3.8 L182.3,4 L181.9,4.1 L181.6,4.2 L181.4,4.4 L181.2,4.5 L181.1,4.7 L181,4.8 L181,5 L181,5.1 L181.1,5.3 L181.3,5.4 L181.4,5.6 L181.7,5.7 L181.9,5.9 L182.2,6 L182.4,6.1 L182.7,6.3 L183,6.4 L183.4,6.6 L183.7,6.7 L184,6.9 L184.3,7 L184.6,7.2 L184.9,7.3 L185.2,7.5 L185.5,7.6 L185.8,7.8 L186,7.9 L186.3,8 L186.5,8.2 L186.6,8.3 L186.8,8.5 L186.9,8.6 L187,8.8 L187.1,8.9 L187.2,9.1 L187.2,9.2 L187.2,9.4 L187.1,9.5 L187.1,9.7 L187,9.8 L186.8,9.9 L186.7,10.1 L186.5,10.2 L186.3,10.4 L186,10.5 L185.8,10.7 L185.5,10.8 L185.1,11 L184.8,11.1 L184.4,11.3 L184.1,11.4 L183.7,11.6 L183.2,11.7 L182.8,11.9 L182.3,12 L181.9,12.1 L181.4,12.3 L180.9,12.4 L180.4,12.6 L179.9,12.7 L179.4,12.9 L178.8,13 L178.3,13.2 L177.8,13.3 L177.2,13.5 L176.7,13.6 L176.2,13.8 L175.6,13.9 L175.1,14 L174.6,14.2 L174.1,14.3 L173.6,14.5 L173.1,14.6 L172.6,14.8 L172.1,14.9 L171.6,15.1 L171.2,15.2 L170.7,15.4 L170.3,15.5 L169.9,15.7 L169.5,15.8 L169.1,15.9 L168.7,16.1 L168.3,16.2 L167.9,16.4 L167.6,16.5 L167.3,16.7 L166.9,16.8 L166.6,17 L166.3,17.1 L166.1,17.3 L165.8,17.4 L165.6,17.6 L165.3,17.7 L165.1,17.9 L164.9,18 L164.7,18.1 L164.5,18.3 L164.3,18.4 L164.1,18.6 L164,18.7 L163.8,18.9 L163.7,19 L163.5,19.2 L163.4,19.3 L163.3,19.5 L163.2,19.6 L163.1,19.8 L163,19.9 L162.9,20 L162.8,20.2 L162.8,20.3 L162.7,20.5 L162.6,20.6 L162.6,20.8 L162.5,20.9 L162.5,21.1 L162.4,21.2 L162.4,21.4 L162.4,21.5 L162.3,21.7 L162.3,21.8 L162.3,21.9 L162.2,22.1 L162.2,22.2 L162.2,22.4 L162.2,22.5 L162.2,22.7 L162,22.7 Z" fill="#1c2a3d" stroke="#1c2a3d" stroke-width="7" stroke-linejoin="round"></path><path d="M162,-21.2 L162.2,-21.2 L162.2,-21.1 L162.2,-20.9 L162.3,-20.8 L162.3,-20.6 L162.4,-20.5 L162.4,-20.3 L162.5,-20.2 L162.6,-20 L162.7,-19.9 L162.8,-19.8 L162.9,-19.6 L163,-19.5 L163.1,-19.3 L163.3,-19.2 L163.4,-19 L163.6,-18.9 L163.8,-18.7 L164.1,-18.6 L164.3,-18.4 L164.6,-18.3 L164.9,-18.1 L165.2,-18 L165.6,-17.9 L165.9,-17.7 L166.4,-17.6 L166.8,-17.4 L167.3,-17.3 L167.8,-17.1 L168.3,-17 L168.9,-16.8 L169.5,-16.7 L170.1,-16.5 L170.8,-16.4 L171.5,-16.2 L172.2,-16.1 L172.9,-15.9 L173.7,-15.8 L174.5,-15.7 L175.4,-15.5 L176.2,-15.4 L177,-15.2 L177.9,-15.1 L178.8,-14.9 L179.7,-14.8 L180.6,-14.6 L181.4,-14.5 L182.3,-14.3 L183.1,-14.2 L184,-14 L184.8,-13.9 L185.5,-13.8 L186.3,-13.6 L187,-13.5 L187.6,-13.3 L188.2,-13.2 L188.8,-13 L189.3,-12.9 L189.7,-12.7 L190.1,-12.6 L190.4,-12.4 L190.6,-12.3 L190.8,-12.1 L190.9,-12 L190.9,-11.9 L190.9,-11.7 L190.8,-11.6 L190.6,-11.4 L190.3,-11.3 L190,-11.1 L189.6,-11 L189.1,-10.8 L188.6,-10.7 L188,-10.5 L187.4,-10.4 L186.7,-10.2 L186,-10.1 L185.3,-9.9 L184.5,-9.8 L183.7,-9.7 L182.9,-9.5 L182,-9.4 L181.2,-9.2 L180.4,-9.1 L179.5,-8.9 L178.7,-8.8 L177.9,-8.6 L177,-8.5 L176.3,-8.3 L175.5,-8.2 L174.8,-8 L174.1,-7.9 L173.5,-7.8 L172.9,-7.6 L172.3,-7.5 L171.8,-7.3 L171.4,-7.2 L171,-7 L170.7,-6.9 L170.5,-6.7 L170.3,-6.6 L170.2,-6.4 L170.2,-6.3 L170.3,-6.1 L170.4,-6 L170.6,-5.9 L170.9,-5.7 L171.3,-5.6 L171.8,-5.4 L172.4,-5.3 L173,-5.1 L173.8,-5 L174.6,-4.8 L175.5,-4.7 L176.5,-4.5 L177.5,-4.4 L178.7,-4.2 L179.9,-4.1 L181.2,-4 L182.5,-3.8 L183.9,-3.7 L185.3,-3.5 L186.8,-3.4 L188.3,-3.2 L189.8,-3.1 L191.3,-2.9 L192.8,-2.8 L194.2,-2.6 L195.7,-2.5 L197.1,-2.3 L198.5,-2.2 L199.8,-2 L201,-1.9 L202.2,-1.8 L203.2,-1.6 L204.2,-1.5 L205,-1.3 L205.7,-1.2 L206.3,-1 L206.8,-0.9 L207.1,-0.7 L207.3,-0.6 L207.4,-0.4 L207.3,-0.3 L207.1,-0.1 L206.8,0 L206.3,0.1 L205.8,0.3 L205.1,0.4 L204.3,0.6 L203.4,0.7 L202.5,0.9 L201.5,1 L200.4,1.2 L199.3,1.3 L198.2,1.5 L197,1.6 L195.8,1.8 L194.6,1.9 L193.4,2 L192.3,2.2 L191.1,2.3 L190,2.5 L189,2.6 L188,2.8 L187,2.9 L186.1,3.1 L185.3,3.2 L184.6,3.4 L183.9,3.5 L183.3,3.7 L182.8,3.8 L182.3,4 L181.9,4.1 L181.6,4.2 L181.4,4.4 L181.2,4.5 L181.1,4.7 L181,4.8 L181,5 L181,5.1 L181.1,5.3 L181.3,5.4 L181.4,5.6 L181.7,5.7 L181.9,5.9 L182.2,6 L182.4,6.1 L182.7,6.3 L183,6.4 L183.4,6.6 L183.7,6.7 L184,6.9 L184.3,7 L184.6,7.2 L184.9,7.3 L185.2,7.5 L185.5,7.6 L185.8,7.8 L186,7.9 L186.3,8 L186.5,8.2 L186.6,8.3 L186.8,8.5 L186.9,8.6 L187,8.8 L187.1,8.9 L187.2,9.1 L187.2,9.2 L187.2,9.4 L187.1,9.5 L187.1,9.7 L187,9.8 L186.8,9.9 L186.7,10.1 L186.5,10.2 L186.3,10.4 L186,10.5 L185.8,10.7 L185.5,10.8 L185.1,11 L184.8,11.1 L184.4,11.3 L184.1,11.4 L183.7,11.6 L183.2,11.7 L182.8,11.9 L182.3,12 L181.9,12.1 L181.4,12.3 L180.9,12.4 L180.4,12.6 L179.9,12.7 L179.4,12.9 L178.8,13 L178.3,13.2 L177.8,13.3 L177.2,13.5 L176.7,13.6 L176.2,13.8 L175.6,13.9 L175.1,14 L174.6,14.2 L174.1,14.3 L173.6,14.5 L173.1,14.6 L172.6,14.8 L172.1,14.9 L171.6,15.1 L171.2,15.2 L170.7,15.4 L170.3,15.5 L169.9,15.7 L169.5,15.8 L169.1,15.9 L168.7,16.1 L168.3,16.2 L167.9,16.4 L167.6,16.5 L167.3,16.7 L166.9,16.8 L166.6,17 L166.3,17.1 L166.1,17.3 L165.8,17.4 L165.6,17.6 L165.3,17.7 L165.1,17.9 L164.9,18 L164.7,18.1 L164.5,18.3 L164.3,18.4 L164.1,18.6 L164,18.7 L163.8,18.9 L163.7,19 L163.5,19.2 L163.4,19.3 L163.3,19.5 L163.2,19.6 L163.1,19.8 L163,19.9 L162.9,20 L162.8,20.2 L162.8,20.3 L162.7,20.5 L162.6,20.6 L162.6,20.8 L162.5,20.9 L162.5,21.1 L162.4,21.2 L162.4,21.4 L162.4,21.5 L162.3,21.7 L162.3,21.8 L162.3,21.9 L162.2,22.1 L162.2,22.2 L162.2,22.4 L162.2,22.5 L162.2,22.7 L162,22.7 Z" fill="#368278" stroke="#368278" stroke-width="2" stroke-linejoin="round"></path><clipPath id="rising-h10"><path d="M162,-21.2 L162.2,-21.2 L162.2,-21.1 L162.2,-20.9 L162.3,-20.8 L162.3,-20.6 L162.4,-20.5 L162.4,-20.3 L162.5,-20.2 L162.6,-20 L162.7,-19.9 L162.8,-19.8 L162.9,-19.6 L163,-19.5 L163.1,-19.3 L163.3,-19.2 L163.4,-19 L163.6,-18.9 L163.8,-18.7 L164.1,-18.6 L164.3,-18.4 L164.6,-18.3 L164.9,-18.1 L165.2,-18 L165.6,-17.9 L165.9,-17.7 L166.4,-17.6 L166.8,-17.4 L167.3,-17.3 L167.8,-17.1 L168.3,-17 L168.9,-16.8 L169.5,-16.7 L170.1,-16.5 L170.8,-16.4 L171.5,-16.2 L172.2,-16.1 L172.9,-15.9 L173.7,-15.8 L174.5,-15.7 L175.4,-15.5 L176.2,-15.4 L177,-15.2 L177.9,-15.1 L178.8,-14.9 L179.7,-14.8 L180.6,-14.6 L181.4,-14.5 L182.3,-14.3 L183.1,-14.2 L184,-14 L184.8,-13.9 L185.5,-13.8 L186.3,-13.6 L187,-13.5 L187.6,-13.3 L188.2,-13.2 L188.8,-13 L189.3,-12.9 L189.7,-12.7 L190.1,-12.6 L190.4,-12.4 L190.6,-12.3 L190.8,-12.1 L190.9,-12 L190.9,-11.9 L190.9,-11.7 L190.8,-11.6 L190.6,-11.4 L190.3,-11.3 L190,-11.1 L189.6,-11 L189.1,-10.8 L188.6,-10.7 L188,-10.5 L187.4,-10.4 L186.7,-10.2 L186,-10.1 L185.3,-9.9 L184.5,-9.8 L183.7,-9.7 L182.9,-9.5 L182,-9.4 L181.2,-9.2 L180.4,-9.1 L179.5,-8.9 L178.7,-8.8 L177.9,-8.6 L177,-8.5 L176.3,-8.3 L175.5,-8.2 L174.8,-8 L174.1,-7.9 L173.5,-7.8 L172.9,-7.6 L172.3,-7.5 L171.8,-7.3 L171.4,-7.2 L171,-7 L170.7,-6.9 L170.5,-6.7 L170.3,-6.6 L170.2,-6.4 L170.2,-6.3 L170.3,-6.1 L170.4,-6 L170.6,-5.9 L170.9,-5.7 L171.3,-5.6 L171.8,-5.4 L172.4,-5.3 L173,-5.1 L173.8,-5 L174.6,-4.8 L175.5,-4.7 L176.5,-4.5 L177.5,-4.4 L178.7,-4.2 L179.9,-4.1 L181.2,-4 L182.5,-3.8 L183.9,-3.7 L185.3,-3.5 L186.8,-3.4 L188.3,-3.2 L189.8,-3.1 L191.3,-2.9 L192.8,-2.8 L194.2,-2.6 L195.7,-2.5 L197.1,-2.3 L198.5,-2.2 L199.8,-2 L201,-1.9 L202.2,-1.8 L203.2,-1.6 L204.2,-1.5 L205,-1.3 L205.7,-1.2 L206.3,-1 L206.8,-0.9 L207.1,-0.7 L207.3,-0.6 L207.4,-0.4 L207.3,-0.3 L207.1,-0.1 L206.8,0 L206.3,0.1 L205.8,0.3 L205.1,0.4 L204.3,0.6 L203.4,0.7 L202.5,0.9 L201.5,1 L200.4,1.2 L199.3,1.3 L198.2,1.5 L197,1.6 L195.8,1.8 L194.6,1.9 L193.4,2 L192.3,2.2 L191.1,2.3 L190,2.5 L189,2.6 L188,2.8 L187,2.9 L186.1,3.1 L185.3,3.2 L184.6,3.4 L183.9,3.5 L183.3,3.7 L182.8,3.8 L182.3,4 L181.9,4.1 L181.6,4.2 L181.4,4.4 L181.2,4.5 L181.1,4.7 L181,4.8 L181,5 L181,5.1 L181.1,5.3 L181.3,5.4 L181.4,5.6 L181.7,5.7 L181.9,5.9 L182.2,6 L182.4,6.1 L182.7,6.3 L183,6.4 L183.4,6.6 L183.7,6.7 L184,6.9 L184.3,7 L184.6,7.2 L184.9,7.3 L185.2,7.5 L185.5,7.6 L185.8,7.8 L186,7.9 L186.3,8 L186.5,8.2 L186.6,8.3 L186.8,8.5 L186.9,8.6 L187,8.8 L187.1,8.9 L187.2,9.1 L187.2,9.2 L187.2,9.4 L187.1,9.5 L187.1,9.7 L187,9.8 L186.8,9.9 L186.7,10.1 L186.5,10.2 L186.3,10.4 L186,10.5 L185.8,10.7 L185.5,10.8 L185.1,11 L184.8,11.1 L184.4,11.3 L184.1,11.4 L183.7,11.6 L183.2,11.7 L182.8,11.9 L182.3,12 L181.9,12.1 L181.4,12.3 L180.9,12.4 L180.4,12.6 L179.9,12.7 L179.4,12.9 L178.8,13 L178.3,13.2 L177.8,13.3 L177.2,13.5 L176.7,13.6 L176.2,13.8 L175.6,13.9 L175.1,14 L174.6,14.2 L174.1,14.3 L173.6,14.5 L173.1,14.6 L172.6,14.8 L172.1,14.9 L171.6,15.1 L171.2,15.2 L170.7,15.4 L170.3,15.5 L169.9,15.7 L169.5,15.8 L169.1,15.9 L168.7,16.1 L168.3,16.2 L167.9,16.4 L167.6,16.5 L167.3,16.7 L166.9,16.8 L166.6,17 L166.3,17.1 L166.1,17.3 L165.8,17.4 L165.6,17.6 L165.3,17.7 L165.1,17.9 L164.9,18 L164.7,18.1 L164.5,18.3 L164.3,18.4 L164.1,18.6 L164,18.7 L163.8,18.9 L163.7,19 L163.5,19.2 L163.4,19.3 L163.3,19.5 L163.2,19.6 L163.1,19.8 L163,19.9 L162.9,20 L162.8,20.2 L162.8,20.3 L162.7,20.5 L162.6,20.6 L162.6,20.8 L162.5,20.9 L162.5,21.1 L162.4,21.2 L162.4,21.4 L162.4,21.5 L162.3,21.7 L162.3,21.8 L162.3,21.9 L162.2,22.1 L162.2,22.2 L162.2,22.4 L162.2,22.5 L162.2,22.7 L162,22.7 Z"></path></clipPath><g clip-path="url(#rising-h10)"><rect x="160" y="-26.7" width="51.4" height="26.7" fill="#4cb5a8"></rect></g><path d="M161,-12.5 L161,12.5" stroke="#dcc6a2" stroke-width="4" stroke-linecap="round"></path></g><text transform="translate(350.4 456.6) rotate(-30)" text-anchor="middle" font-family="Lexend, 'Helvetica Neue', Arial, sans-serif" font-weight="600" font-size="48" textLength="324.1" lengthAdjust="spacingAndGlyphs" fill="#f2ead9">distributional</text></g><polygon points="260,21 501.6,160.5 501.6,439.5 260,579 18.4,439.5 18.4,160.5" fill="none" stroke="#f2ead9" stroke-width="2" stroke-dasharray="2 7" stroke-linecap="round" opacity=".5"></polygon><polygon points="260,8 512.9,154 512.9,446 260,592 7.1,446 7.1,154" fill="none" stroke="#f2ead9" stroke-width="12" stroke-linejoin="round"></polygon></svg>